<svg width="629" height="288" viewBox="0 0 629 288" fill="none" xmlns="http://www.w3.org/2000/svg">
<rect width="629" height="288" rx="12" fill="#F9F9F9"/>
<path d="M29.4347 253.455H32.6591L36.9773 263.994H37.1477L41.4659 253.455H44.6903V268H42.1619V258.007H42.027L38.0071 267.957H36.1179L32.098 257.986H31.9631V268H29.4347V253.455ZM50.5852 268.22C49.8939 268.22 49.2713 268.097 48.7173 267.851C48.1681 267.6 47.7325 267.231 47.4105 266.743C47.0933 266.255 46.9347 265.654 46.9347 264.939C46.9347 264.323 47.0483 263.814 47.2756 263.412C47.5028 263.009 47.813 262.688 48.206 262.446C48.599 262.205 49.0417 262.022 49.5341 261.899C50.0313 261.771 50.545 261.679 51.0753 261.622C51.7145 261.556 52.233 261.497 52.6307 261.445C53.0284 261.388 53.3172 261.303 53.4972 261.189C53.6818 261.071 53.7741 260.888 53.7741 260.642V260.599C53.7741 260.064 53.6155 259.65 53.2983 259.357C52.9811 259.063 52.5241 258.916 51.9276 258.916C51.2978 258.916 50.7983 259.054 50.429 259.328C50.0644 259.603 49.8182 259.927 49.6903 260.301L47.2898 259.96C47.4792 259.297 47.7917 258.743 48.2273 258.298C48.6629 257.848 49.1955 257.512 49.8253 257.29C50.455 257.062 51.151 256.949 51.9134 256.949C52.4389 256.949 52.9621 257.01 53.483 257.134C54.0038 257.257 54.4796 257.46 54.9105 257.744C55.3414 258.024 55.687 258.405 55.9474 258.888C56.2126 259.371 56.3452 259.974 56.3452 260.699V268H53.8736V266.501H53.7884C53.6321 266.804 53.4119 267.089 53.1278 267.354C52.8485 267.614 52.4957 267.825 52.0696 267.986C51.6482 268.142 51.1534 268.22 50.5852 268.22ZM51.2528 266.331C51.7689 266.331 52.2164 266.229 52.5952 266.026C52.974 265.817 53.2652 265.543 53.4688 265.202C53.6771 264.861 53.7812 264.489 53.7812 264.087V262.801C53.7008 262.867 53.5634 262.929 53.3693 262.986C53.1799 263.043 52.9669 263.092 52.7301 263.135C52.4934 263.178 52.259 263.215 52.027 263.249C51.795 263.282 51.5938 263.31 51.4233 263.334C51.0398 263.386 50.6965 263.471 50.3935 263.589C50.0904 263.708 49.8513 263.874 49.6761 264.087C49.5009 264.295 49.4134 264.565 49.4134 264.896C49.4134 265.37 49.5862 265.727 49.9318 265.969C50.2775 266.21 50.7178 266.331 51.2528 266.331Z" fill="black"/>
<path d="M130.51 268H125.581V253.455H130.61C132.054 253.455 133.294 253.746 134.331 254.328C135.373 254.906 136.173 255.737 136.732 256.821C137.29 257.905 137.57 259.203 137.57 260.713C137.57 262.228 137.288 263.53 136.725 264.619C136.166 265.708 135.359 266.544 134.303 267.126C133.252 267.709 131.987 268 130.51 268ZM128.216 265.72H130.382C131.396 265.72 132.241 265.536 132.918 265.166C133.595 264.792 134.104 264.236 134.445 263.497C134.786 262.754 134.956 261.826 134.956 260.713C134.956 259.6 134.786 258.677 134.445 257.943C134.104 257.205 133.6 256.653 132.932 256.288C132.269 255.919 131.445 255.734 130.46 255.734H128.216V265.72ZM139.96 268V257.091H142.531V268H139.96ZM141.252 255.543C140.845 255.543 140.495 255.408 140.201 255.138C139.908 254.863 139.761 254.534 139.761 254.151C139.761 253.762 139.908 253.433 140.201 253.163C140.495 252.889 140.845 252.751 141.252 252.751C141.664 252.751 142.015 252.889 142.303 253.163C142.597 253.433 142.744 253.762 142.744 254.151C142.744 254.534 142.597 254.863 142.303 255.138C142.015 255.408 141.664 255.543 141.252 255.543Z" fill="black"/>
<path d="M212.4 268L208.295 253.455H211.129L213.749 264.143H213.884L216.683 253.455H219.261L222.066 264.151H222.194L224.815 253.455H227.649L223.544 268H220.944L218.032 257.794H217.919L214.999 268H212.4ZM233.007 268.213C231.942 268.213 231.019 267.979 230.237 267.51C229.456 267.041 228.85 266.385 228.419 265.543C227.993 264.7 227.78 263.715 227.78 262.588C227.78 261.461 227.993 260.474 228.419 259.626C228.85 258.779 229.456 258.121 230.237 257.652C231.019 257.183 231.942 256.949 233.007 256.949C234.073 256.949 234.996 257.183 235.777 257.652C236.558 258.121 237.162 258.779 237.588 259.626C238.019 260.474 238.235 261.461 238.235 262.588C238.235 263.715 238.019 264.7 237.588 265.543C237.162 266.385 236.558 267.041 235.777 267.51C234.996 267.979 234.073 268.213 233.007 268.213ZM233.021 266.153C233.599 266.153 234.082 265.995 234.47 265.678C234.859 265.356 235.147 264.925 235.337 264.385C235.531 263.845 235.628 263.244 235.628 262.581C235.628 261.913 235.531 261.31 235.337 260.77C235.147 260.225 234.859 259.792 234.47 259.47C234.082 259.148 233.599 258.987 233.021 258.987C232.43 258.987 231.937 259.148 231.544 259.47C231.156 259.792 230.865 260.225 230.671 260.77C230.481 261.31 230.387 261.913 230.387 262.581C230.387 263.244 230.481 263.845 230.671 264.385C230.865 264.925 231.156 265.356 231.544 265.678C231.937 265.995 232.43 266.153 233.021 266.153Z" fill="black"/>
<path d="M308.034 268H303.105V253.455H308.133C309.577 253.455 310.818 253.746 311.855 254.328C312.896 254.906 313.696 255.737 314.255 256.821C314.814 257.905 315.093 259.203 315.093 260.713C315.093 262.228 314.811 263.53 314.248 264.619C313.689 265.708 312.882 266.544 311.826 267.126C310.775 267.709 309.511 268 308.034 268ZM305.74 265.72H307.906C308.919 265.72 309.764 265.536 310.441 265.166C311.118 264.792 311.627 264.236 311.968 263.497C312.309 262.754 312.48 261.826 312.48 260.713C312.48 259.6 312.309 258.677 311.968 257.943C311.627 257.205 311.123 256.653 310.455 256.288C309.793 255.919 308.969 255.734 307.984 255.734H305.74V265.72ZM322.242 268.213C321.176 268.213 320.253 267.979 319.472 267.51C318.691 267.041 318.084 266.385 317.654 265.543C317.227 264.7 317.014 263.715 317.014 262.588C317.014 261.461 317.227 260.474 317.654 259.626C318.084 258.779 318.691 258.121 319.472 257.652C320.253 257.183 321.176 256.949 322.242 256.949C323.307 256.949 324.23 257.183 325.012 257.652C325.793 258.121 326.396 258.779 326.823 259.626C327.253 260.474 327.469 261.461 327.469 262.588C327.469 263.715 327.253 264.7 326.823 265.543C326.396 266.385 325.793 267.041 325.012 267.51C324.23 267.979 323.307 268.213 322.242 268.213ZM322.256 266.153C322.834 266.153 323.316 265.995 323.705 265.678C324.093 265.356 324.382 264.925 324.571 264.385C324.765 263.845 324.862 263.244 324.862 262.581C324.862 261.913 324.765 261.31 324.571 260.77C324.382 260.225 324.093 259.792 323.705 259.47C323.316 259.148 322.834 258.987 322.256 258.987C321.664 258.987 321.172 259.148 320.779 259.47C320.39 259.792 320.099 260.225 319.905 260.77C319.716 261.31 319.621 261.913 319.621 262.581C319.621 263.244 319.716 263.845 319.905 264.385C320.099 264.925 320.39 265.356 320.779 265.678C321.172 265.995 321.664 266.153 322.256 266.153Z" fill="black"/>
<path d="M397.68 253.455L401.465 264.903H401.614L405.393 253.455H408.29L403.162 268H399.91L394.789 253.455H397.68ZM410.093 268V257.091H412.585V258.909H412.699C412.898 258.279 413.239 257.794 413.722 257.453C414.209 257.107 414.766 256.935 415.391 256.935C415.533 256.935 415.691 256.942 415.867 256.956C416.047 256.965 416.196 256.982 416.314 257.006V259.371C416.205 259.333 416.032 259.3 415.796 259.271C415.564 259.238 415.339 259.222 415.121 259.222C414.652 259.222 414.231 259.323 413.857 259.527C413.487 259.726 413.196 260.003 412.983 260.358C412.77 260.713 412.664 261.123 412.664 261.587V268H410.093Z" fill="black"/>
<path d="M484.899 268V266.359L492.357 255.663H484.857V253.455H495.624V255.095L488.173 265.791H495.666V268H484.899ZM501.241 268.22C500.55 268.22 499.928 268.097 499.374 267.851C498.824 267.6 498.389 267.231 498.067 266.743C497.75 266.255 497.591 265.654 497.591 264.939C497.591 264.323 497.705 263.814 497.932 263.412C498.159 263.009 498.469 262.688 498.862 262.446C499.255 262.205 499.698 262.022 500.19 261.899C500.688 261.771 501.201 261.679 501.732 261.622C502.371 261.556 502.889 261.497 503.287 261.445C503.685 261.388 503.973 261.303 504.153 261.189C504.338 261.071 504.43 260.888 504.43 260.642V260.599C504.43 260.064 504.272 259.65 503.955 259.357C503.637 259.063 503.18 258.916 502.584 258.916C501.954 258.916 501.455 259.054 501.085 259.328C500.721 259.603 500.474 259.927 500.347 260.301L497.946 259.96C498.135 259.297 498.448 258.743 498.884 258.298C499.319 257.848 499.852 257.512 500.482 257.29C501.111 257.062 501.807 256.949 502.57 256.949C503.095 256.949 503.618 257.01 504.139 257.134C504.66 257.257 505.136 257.46 505.567 257.744C505.998 258.024 506.343 258.405 506.604 258.888C506.869 259.371 507.001 259.974 507.001 260.699V268H504.53V266.501H504.445C504.288 266.804 504.068 267.089 503.784 267.354C503.505 267.614 503.152 267.825 502.726 267.986C502.304 268.142 501.81 268.22 501.241 268.22ZM501.909 266.331C502.425 266.331 502.873 266.229 503.251 266.026C503.63 265.817 503.921 265.543 504.125 265.202C504.333 264.861 504.438 264.489 504.438 264.087V262.801C504.357 262.867 504.22 262.929 504.026 262.986C503.836 263.043 503.623 263.092 503.386 263.135C503.15 263.178 502.915 263.215 502.683 263.249C502.451 263.282 502.25 263.31 502.08 263.334C501.696 263.386 501.353 263.471 501.05 263.589C500.747 263.708 500.508 263.874 500.332 264.087C500.157 264.295 500.07 264.565 500.07 264.896C500.07 265.37 500.242 265.727 500.588 265.969C500.934 266.21 501.374 266.331 501.909 266.331Z" fill="black"/>
<path d="M574.557 268V266.359L582.015 255.663H574.515V253.455H585.282V255.095L577.831 265.791H585.324V268H574.557ZM592.519 268.213C591.454 268.213 590.53 267.979 589.749 267.51C588.968 267.041 588.362 266.385 587.931 265.543C587.505 264.7 587.292 263.715 587.292 262.588C587.292 261.461 587.505 260.474 587.931 259.626C588.362 258.779 588.968 258.121 589.749 257.652C590.53 257.183 591.454 256.949 592.519 256.949C593.584 256.949 594.508 257.183 595.289 257.652C596.07 258.121 596.674 258.779 597.1 259.626C597.531 260.474 597.746 261.461 597.746 262.588C597.746 263.715 597.531 264.7 597.1 265.543C596.674 266.385 596.07 267.041 595.289 267.51C594.508 267.979 593.584 268.213 592.519 268.213ZM592.533 266.153C593.111 266.153 593.594 265.995 593.982 265.678C594.37 265.356 594.659 264.925 594.849 264.385C595.043 263.845 595.14 263.244 595.14 262.581C595.14 261.913 595.043 261.31 594.849 260.77C594.659 260.225 594.37 259.792 593.982 259.47C593.594 259.148 593.111 258.987 592.533 258.987C591.941 258.987 591.449 259.148 591.056 259.47C590.668 259.792 590.376 260.225 590.182 260.77C589.993 261.31 589.898 261.913 589.898 262.581C589.898 263.244 589.993 263.845 590.182 264.385C590.376 264.925 590.668 265.356 591.056 265.678C591.449 265.995 591.941 266.153 592.533 266.153Z" fill="black"/>
<rect x="37" y="28" width="12" height="209" rx="6" fill="black"/>
<rect x="128" y="28" width="11" height="209" rx="5.5" fill="black"/>
<rect x="218" y="28" width="12" height="209" rx="6" fill="black"/>
<rect x="309" y="28" width="11" height="209" rx="5.5" fill="black"/>
<rect x="399" y="28" width="12" height="209" rx="6" fill="black"/>
<rect x="490" y="28" width="11" height="209" rx="5.5" fill="black"/>
<rect x="580" y="28" width="11" height="209" rx="5.5" fill="black"/>
<path d="M19 209.773C19 209.773 56.7428 216.259 116.337 159.875C175.931 103.492 204.734 101.489 241.484 106.479C298.23 114.184 320.366 180.218 377.557 177.34C440.313 174.181 461.173 93.9663 523.5 85.9985C567 80.4375 589 95.5 606 122.452" stroke="#1ACD77" stroke-width="15" stroke-linecap="round"/>
</svg>
