<svg width="745" height="705" viewBox="0 0 745 705" fill="none" xmlns="http://www.w3.org/2000/svg">
<path d="M195.592 621.59C188.904 622.85 176.329 626.127 163.59 635.608C150.814 645.118 144.074 656.245 140.956 662.301C182.668 662.605 224.38 662.909 266.093 663.213C257.103 658.751 248.106 654.281 239.116 649.818C224.611 640.411 210.098 631.004 195.592 621.597V621.59Z" fill="#3D9A6A"/>
<path d="M270.673 633.457C262.366 643.643 260.532 649.469 253.762 650.833C248.588 651.871 243.748 649.669 240.497 647.668C242.664 641.574 243.815 638.335 243.815 638.335C243.815 638.335 241.618 638.187 240.645 638.031C237.579 637.549 235.33 635.229 235.367 635.17C235.434 635.073 243.154 639.402 242.605 641.041C242.338 641.849 240.118 641.886 237.475 641.641C237.431 640.107 237.164 638.135 235.968 637.579C234.447 636.867 232.977 639.18 230.386 639.684C224.818 640.781 219.036 632.583 218.241 633.272C217.618 633.821 221.463 638.676 220.587 639.528C220.053 640.055 218.397 638.417 214.708 637.423C211.597 636.578 211.13 637.305 209.393 636.378C207.262 635.244 201.509 628.409 199.928 628.543C197.24 628.772 175.653 628.98 172.595 629.136C166.314 629.462 160.227 628.135 154.192 626.637C149.998 625.6 147.147 622.916 146.286 618.72C145.373 614.28 146.947 610.485 150.577 607.66C154.533 604.584 158.913 602.212 163.531 600.277C164.867 599.714 166.24 599.232 167.576 598.654C169.343 597.898 171.592 596.771 171.318 594.925C170.939 592.375 165.802 591.211 164.644 591.241C154.712 591.493 121.789 590.388 115.471 588.535C110.861 587.186 107.098 584.784 106.734 579.284C106.363 573.717 108.657 569.64 113.653 567.223C120.081 564.11 126.584 561.144 133.674 557.824C126.762 553.843 100.736 550.463 94.8788 548.276C87.7374 545.614 84.1965 540.87 84.293 534.295C84.3895 528.053 89.2221 524.406 95.2722 522.412C99.7263 520.944 114.068 511.634 114.128 508.076C114.187 504.169 112.242 500.477 107.907 498.884C89.3929 492.079 79.6904 476.348 70.1365 460.803C64.7916 452.101 68.6815 445.526 79.245 444.028C97.1949 441.478 115.145 441.745 132.946 445.273C138.811 446.437 143.732 450.307 149.634 451.767C152.566 452.486 155.372 452.775 158.29 452.768C186.12 452.694 211.686 460.27 234.855 475.652C239.428 478.683 243.37 481.626 246.807 484.391C246.807 484.391 253.354 489.655 259.426 495.666C265.083 501.263 284.213 522.167 300.745 559.454C305.444 570.062 311.294 585.066 316.075 603.828C312.4 604.451 306.743 605.733 300.419 608.669C285.364 615.652 275.082 628.031 270.665 633.442L270.673 633.457Z" fill="#014D56"/>
<path d="M176.618 561.671C173.411 554.532 167.205 559.291 162.476 558.29C159.945 557.757 156.382 557.008 155.164 561.018C154.994 561.589 155.179 562.264 155.194 562.894C155.914 566.096 157.911 567.267 161.155 567.045C164.288 566.83 167.465 566.83 170.598 567.045C174.592 567.319 176.477 565.555 176.618 561.678V561.671Z" fill="#014D56"/>
<path d="M200.024 525.883C200.811 526.766 201.435 528.048 202.986 527.151L200.908 525.083C197.701 519.175 192.942 514.519 188.31 509.797C186.491 507.944 183.618 507.855 182.163 509.494C180.783 511.058 182.72 512.807 184.309 513.993C189.572 517.929 194.783 521.918 200.024 525.883Z" fill="#014D56"/>
<path d="M131.491 482.53L132.976 484.213C133.763 483.153 133.525 482.39 132.3 481.93C132.478 479.254 130.251 477.749 128.893 476.148C121.573 467.519 113.096 460.64 100.951 460.462C98.9394 460.433 97.0613 460.877 96.7495 463.279C96.4822 465.295 97.7368 466.289 99.563 466.823C111.121 470.195 121.314 476.356 131.491 482.523V482.53Z" fill="#014D56"/>
<path d="M223.289 594.63C216.541 587.388 210.402 579.552 202.125 574.148C197.389 571.057 192.2 567.328 185.972 571.183C184.806 571.902 183.203 572.725 183.871 574.489C184.376 575.824 185.845 576.046 187.13 575.801C193.098 574.637 196.906 578.677 201.041 581.657C208.049 586.706 215.569 590.798 223.289 594.63Z" fill="#014D56"/>
<path d="M138.974 532.458C139.189 531.732 139.404 531.006 139.62 530.286C130.964 528.604 122.308 526.921 113.653 525.238C113.526 525.891 113.408 526.535 113.281 527.188C121.633 530.005 130.348 531.028 138.974 532.466V532.458Z" fill="#014D56"/>
<path d="M223.853 504.793C222.406 497.158 216.757 492.154 211.026 493.073C214.158 498.529 219.956 500.59 223.853 504.793Z" fill="#014D56"/>
<path d="M131.491 482.53C121.314 476.356 111.121 470.195 99.563 466.823C97.7368 466.289 96.4822 465.295 96.7495 463.279C97.0687 460.877 98.9394 460.433 100.951 460.462C113.096 460.64 121.573 467.519 128.885 476.148C130.244 477.749 132.478 479.254 132.293 481.93C132.018 482.13 131.751 482.33 131.484 482.53H131.491Z" fill="#014D56"/>
<path d="M223.289 594.631C215.569 590.798 208.041 586.706 201.041 581.658C196.906 578.678 193.098 574.638 187.13 575.802C185.853 576.054 184.383 575.824 183.871 574.49C183.195 572.726 184.806 571.903 185.972 571.184C192.2 567.322 197.389 571.05 202.125 574.149C210.402 579.553 216.541 587.388 223.289 594.631Z" fill="#014D56"/>
<path d="M200.024 525.891C194.791 521.918 189.572 517.929 184.316 513.993C182.728 512.807 180.79 511.058 182.171 509.494C183.626 507.855 186.499 507.944 188.317 509.797C192.95 514.527 197.708 519.175 200.915 525.083C200.588 525.32 200.291 525.587 200.024 525.883V525.891Z" fill="#014D56"/>
<path d="M155.194 562.886C155.172 562.256 154.986 561.581 155.164 561.011C156.389 557.008 159.952 557.749 162.476 558.283C167.205 559.283 173.411 554.524 176.618 561.663C169.596 564.139 162.35 562.782 155.194 562.879V562.886Z" fill="#014D56"/>
<path d="M155.194 562.888C162.35 562.791 169.596 564.148 176.618 561.672C176.477 565.549 174.584 567.313 170.598 567.039C167.465 566.824 164.288 566.824 161.155 567.039C157.911 567.261 155.914 566.09 155.194 562.888Z" fill="#014D56"/>
<path d="M138.974 532.458C130.348 531.02 121.64 529.997 113.281 527.18C113.408 526.528 113.526 525.883 113.653 525.23C122.308 526.913 130.964 528.596 139.62 530.279C139.404 531.005 139.189 531.732 138.974 532.451V532.458Z" fill="#014D56"/>
<path d="M223.853 504.792C219.956 500.581 214.158 498.52 211.026 493.072C216.757 492.16 222.406 497.156 223.853 504.792Z" fill="#014D56"/>
<path d="M200.908 525.082C201.598 525.771 202.288 526.461 202.986 527.15C201.435 528.04 200.811 526.765 200.024 525.883C200.291 525.586 200.588 525.319 200.908 525.082Z" fill="#014D56"/>
<path d="M132.3 481.93C133.533 482.397 133.77 483.153 132.976 484.213C132.478 483.649 131.981 483.094 131.484 482.53C131.751 482.33 132.018 482.13 132.293 481.93H132.3Z" fill="#014D56"/>
<path d="M137.452 482.125C128.054 476.802 118.292 472.103 108.196 468.285C104.863 467.01 101.486 465.861 98.108 464.727C93.9805 463.185 96.0294 457.114 100.261 458.411C107.283 460.857 114.046 464.067 120.46 467.803C126.844 471.547 132.909 475.824 138.447 480.724C139.197 481.391 138.335 482.621 137.445 482.125H137.452Z" fill="#FEC3AF"/>
<path d="M223.349 591.917C213.988 586.527 204.233 581.791 194.115 578.032C190.775 576.772 187.389 575.63 184.004 574.526C179.862 573.036 181.829 566.942 186.076 568.18C193.12 570.671 199.876 573.94 206.327 577.669C212.696 581.435 218.783 585.66 224.343 590.523C225.108 591.19 224.232 592.435 223.341 591.924L223.349 591.917Z" fill="#FEC3AF"/>
<path d="M223.72 504.517C221.567 501.7 218.939 499.261 216.029 497.245C215.064 496.578 214.062 495.97 213.037 495.421C212.006 494.865 211.612 493.583 212.169 492.545C212.807 491.314 214.537 491.048 215.517 492.019C218.271 494.613 220.802 497.415 223.015 500.462C223.742 501.463 224.447 502.486 225.123 503.516C225.383 503.916 225.271 504.45 224.87 504.71C224.492 504.954 223.987 504.865 223.712 504.509L223.72 504.517Z" fill="#FEC3AF"/>
<path d="M163.367 561.367C159.351 558.906 154.808 557.29 150.146 556.674C147.377 556.252 147.897 552.175 150.688 552.464C155.588 554.198 160.123 556.926 164.332 559.936C165.208 560.588 164.31 561.923 163.367 561.359V561.367Z" fill="#FEC3AF"/>
<path d="M199.453 534.919C194.954 530.286 189.995 526.105 184.539 522.665C182.742 521.531 180.909 520.471 179.031 519.485C176.262 517.943 178.415 513.822 181.265 515.23C185.2 517.58 188.822 520.441 192.126 523.599C195.347 526.713 198.265 530.137 200.781 533.836C201.368 534.689 200.165 535.675 199.445 534.919H199.453Z" fill="#FEC3AF"/>
<path d="M252.82 543.352C248.321 538.719 243.362 534.538 237.906 531.099C236.109 529.965 234.276 528.905 232.398 527.919C229.629 526.377 231.782 522.255 234.632 523.664C238.567 526.014 242.189 528.875 245.493 532.033C248.714 535.146 251.632 538.571 254.148 542.27C254.735 543.123 253.532 544.109 252.812 543.352H252.82Z" fill="#FEC3AF"/>
<path d="M140.837 534.153C132.59 531.781 124.001 530.61 115.427 530.988C114.098 531.04 112.977 530.01 112.925 528.683C112.866 527.304 114.009 526.147 115.39 526.184C119.925 526.281 124.439 526.933 128.826 528.008C133.176 529.098 137.422 530.603 141.446 532.552C142.381 533.012 141.839 534.442 140.83 534.161L140.837 534.153Z" fill="#FEC3AF"/>
<path d="M259.107 582.856C252.575 577.296 245.233 572.693 237.275 569.498C234.365 568.238 236.109 563.924 239.086 565.043C243.236 567 247.118 569.491 250.719 572.308C254.23 575.095 257.474 578.216 260.34 581.648C261.008 582.441 259.902 583.538 259.115 582.856H259.107Z" fill="#FEC3AF"/>
<path d="M174.465 480.069C171.793 478.238 169.002 476.748 166.151 475.266C164.496 474.273 165.943 471.826 167.613 472.805C170.457 474.547 173.099 476.667 175.185 479.276C175.571 479.736 174.948 480.403 174.465 480.062V480.069Z" fill="#FEC3AF"/>
<path d="M405.467 552.2C429.126 488.865 451.834 443.275 463.934 424.365C463.934 424.365 482.612 401.548 501.534 390.414C502.469 389.865 503.33 389.658 504.295 389.495C508.809 388.694 513.322 387.886 517.843 387.078C517.658 387.864 517.591 388.709 517.272 389.435C510.405 405.21 512.847 418.368 524.999 430.466C533.759 439.191 544.53 446.062 550.031 457.79C550.402 458.575 551.642 458.953 552.473 459.517C555.361 459.621 556.645 456.722 559.125 455.996C561.745 455.232 560.454 453.713 559.63 452.363C556.712 449.131 554.752 445.114 553.951 441.133C552.986 436.359 550.684 435.744 546.646 437.122C546.832 433.764 548.799 430.466 546.572 428.412C543.565 425.625 543.142 422.193 542.14 418.716C540.685 413.653 538.777 408.724 537.285 403.676C535.57 397.864 533.432 392.111 533.856 385.885C537.842 387.048 542.615 386.411 545.154 390.851C545.109 392.148 544.226 393.646 546.03 394.506C552.57 395.529 557.833 396.752 561.493 397.708C571.262 400.251 575.301 402.326 579.138 400.125C582.575 398.145 581.551 395.21 584.661 392.675C590.882 387.604 600.666 394.758 609.589 394.009C616.664 393.409 625.98 387.604 635.905 364.862C641.993 364.306 647.671 362.326 653.224 359.902C653.625 360.028 654.033 360.162 654.434 360.288C660.974 362 667.522 361.956 674.069 360.317C688.077 362.215 701.989 364.491 714.193 372.341C724.177 378.768 724.838 387.211 716.561 395.803C702.085 410.829 683.363 417.723 663.899 422.497C654.835 424.721 649.52 428.598 648.614 437.871C646.692 457.649 633.263 468.701 617.74 477.916C610.636 482.134 603.012 485.484 595.626 489.235C593.904 489.117 592.783 487.938 591.424 487.071C584.632 482.719 577.513 479.102 569.295 478.264C568.033 479.265 566.318 480.414 564.121 481.34C559.8 483.157 555.881 483.171 553.646 483.001C552.37 479.102 554.092 475.18 553.55 471.252C553.201 468.739 552.726 466.188 550.365 465.002C547.715 463.668 529.142 479.717 513.003 512.26C507.48 523.386 500.836 538.902 495.558 558.383C488.023 553.839 473.117 546.226 452.762 544.521C430.729 542.675 413.655 548.701 405.46 552.215L405.467 552.2ZM628.801 408.635C636.796 407.501 643.648 403.52 650.648 399.954C651.146 399.702 652.044 398.968 651.153 398.079C650.426 397.352 649.55 396.515 648.592 397.426C646.484 399.435 643.7 399.984 641.235 401.214C636.945 403.349 632.186 404.787 628.809 408.635H628.801ZM584.023 441.163C590.095 438.279 596.19 435.44 602.21 432.445C602.797 432.156 604.103 431.4 603.25 430.14C602.544 429.094 601.765 429.28 600.696 429.821C594.683 432.868 588.603 435.788 582.583 438.82C582.212 439.005 581.878 439.91 582.004 440.332C582.279 441.244 583.192 441.229 584.016 441.163H584.023ZM512.402 462.008C511.89 462.163 511.37 462.319 510.858 462.482C513.152 470.999 514.607 479.784 518.4 487.842C518.934 487.678 519.469 487.515 520.003 487.352C517.472 478.902 514.933 470.458 512.402 462.008ZM469.932 496.507C469.39 496.648 468.841 496.789 468.299 496.93C469.851 504.076 470.326 511.504 473.637 518.19C474.156 518.057 474.683 517.923 475.203 517.782C473.451 510.688 471.692 503.594 469.94 496.5L469.932 496.507ZM598.914 456.077C603.42 456.529 605.922 453.624 609.144 453.045C610.035 452.89 610.257 451.837 610.005 451.059C609.626 449.873 608.698 450.54 608.149 450.851C605.35 452.467 601.646 452.393 598.914 456.07V456.077Z" fill="#013A49"/>
<path d="M602.708 491.687C604.675 490.427 606.405 487.788 609.055 489.3C611.401 490.642 609.723 493.363 610.072 495.438C610.228 496.387 610.005 497.499 609.641 498.411C608.869 500.316 607.689 502.584 610.176 503.615C613.093 504.823 614.474 502.503 615.573 500.079C619.069 492.369 619.552 492.221 625.706 497.959C630.004 501.962 632.149 499.026 633.946 495.587C637.308 489.16 641.8 483.77 648.065 480.131C653.551 476.951 659.193 476.35 664.263 481.139C666.972 483.696 669.764 483.719 672.421 481.465C677.321 477.306 682.955 479.086 688.144 479.812C692.056 480.361 693.058 487.484 689.747 491.124C687.216 493.911 686.088 496.802 686.392 500.435C686.971 507.321 680.602 517.047 673.29 518.663C670.239 519.338 667.254 520.798 665.109 523.355C663.944 524.749 663.699 526.454 664.894 527.773C665.755 528.722 667.076 528.285 668.182 527.492C672.072 524.705 676.125 525.513 680.171 527.114C680.906 527.403 681.671 528.285 682.279 528.159C689.963 526.624 690.26 531.524 690.089 536.906C690.059 537.722 690.156 538.537 690.193 539.352C690.304 541.732 689.443 543.452 687.201 544.608C685.434 545.527 684.009 546.943 683.861 549.167C683.163 549.753 681.233 548.048 681.507 550.427C681.01 554.853 676.393 551.406 674.841 553.859C679.949 557.232 680 558.322 674.797 562.547C672.77 564.193 670.454 565.498 668.234 566.899C667.047 567.647 665.629 568.122 665.525 569.856C665.28 574.015 662.31 573.859 659.356 573.726C658.955 573.407 658.554 573.089 658.161 572.77C658.012 572.985 657.864 573.207 657.715 573.422C658.242 573.548 658.762 573.674 659.289 573.808C661.85 575.023 662.875 576.432 661.843 579.671C659.935 585.639 655.8 585.401 651.227 584.334C644.168 582.681 637.182 580.62 629.803 581.146C627.918 579.308 625.906 579.768 623.85 581.139H629.803C631.177 582.844 633.077 583.259 635.148 583.652C641.733 584.897 648.273 586.358 654.813 587.729C650.908 595.231 649.423 605.097 637.613 600.909C637.568 600.894 637.353 601.354 637.204 601.613C643.692 603.333 645.969 607.531 644.034 614.208C643.752 615.179 643.381 616.187 643.41 617.166C643.611 622.985 640.842 623.244 635.965 622.043C631.221 620.872 626.485 618.404 619.752 619.686C624.8 621.02 628.296 622.006 631.83 622.859C638.224 624.406 640.023 628.189 637.227 634.208C630.702 632.429 624.035 632.629 617.369 632.71C610.614 632.799 604.467 635.816 597.853 636.565C591.892 634.49 585.827 633.392 579.502 634.756C585.218 635.72 590.927 636.676 596.643 637.64C587.067 643.63 578.708 650.85 573.192 660.917C570.26 659.501 567.402 660.627 564.529 661.176C563.423 659.293 562.309 657.41 561.203 655.535C560.914 654.556 560.706 653.541 560.32 652.607C557.172 645.016 558.511 638.268 564.336 632.362C565.346 631.339 566.415 630.375 567.357 629.3C573.704 622.11 582.494 617.373 587.698 609.041C592.783 600.894 598.528 592.503 598.655 582.925C598.744 576.024 600.258 569.827 601.839 563.407C605.462 548.715 607.941 534.023 605.432 518.722C603.97 509.805 598.462 501.169 602.708 491.658V491.687ZM663.068 511.22C664.07 510.664 664.263 509.73 664.248 508.7C665.376 508.174 666.341 507.514 666.304 506.098C666.304 505.972 665.948 505.705 665.866 505.742C664.575 506.313 664.344 507.477 664.255 508.715C663.246 509.204 662.986 510.094 662.956 511.109C662.778 511.324 662.607 511.539 662.429 511.754C662.644 511.576 662.852 511.398 663.068 511.22ZM660.536 514.816C660.224 515.223 659.913 515.624 659.601 516.031C659.816 516.157 660.024 516.283 660.239 516.417C660.358 515.905 660.477 515.386 660.596 514.875C660.774 514.682 660.945 514.49 661.123 514.304C660.93 514.475 660.737 514.653 660.544 514.823L660.536 514.816ZM648.199 495.379C647.798 495.283 647.389 495.253 646.974 495.275C645.006 502.154 645.214 509.048 646.907 515.942H648.236C650.173 509.086 650.314 502.229 648.199 495.379ZM631.511 541.962C632.112 541.932 632.721 541.895 633.322 541.865C633.463 532.295 633.953 522.725 633.04 513.163C632.528 513.163 632.023 513.163 631.511 513.163V541.962ZM633.871 613.415C623.323 609.96 612.603 608.337 601.557 610.309C612.551 608.937 622.989 613.607 633.871 613.415ZM613.605 535.965C613.383 535.913 613.153 535.868 612.93 535.816V568.678H613.605V535.965ZM654.412 571.925C650.804 570.746 647.516 568.263 641.733 569.271C647.003 570.961 650.374 573.037 654.412 571.925ZM633.092 600.487C630.709 599.241 627.806 599.471 624.874 600.487H633.092Z" fill="#07966C"/>
<path d="M517.836 387.078C513.322 387.886 508.809 388.687 504.288 389.495C498.312 366.107 505.305 344.357 512.899 322.727C514.993 316.752 519.632 312.615 524.903 309.591C533.277 304.78 535.711 296.93 536.231 288.353C536.595 282.274 538.985 277.167 541.724 272.089C543.142 269.465 545.852 268.523 548.725 267.878C555.866 266.277 559.867 261.259 560.558 254.446C561.159 248.531 563.312 243.142 564.789 237.567C567.142 228.672 574.387 224.261 582.568 221.296C596.042 216.403 601.379 219.398 605.647 233.105C608.216 241.355 609.077 249.665 609.003 258.182C609.018 259.465 609.033 260.74 609.047 262.022C606.575 266.225 608.045 271.096 606.724 275.61C605.84 278.62 604.63 280.792 602.285 282.437C595.351 287.293 591.87 297.308 593.785 305.573C595.136 311.4 596.175 317.226 600.28 321.911C603.116 326.781 603.755 321.755 605.299 320.799C606.702 321.607 606.412 322.919 606.301 324.179C602.025 326.307 601.906 326.485 602.73 329.383C601.743 330.614 600.83 331.926 599.746 333.075C594.215 338.901 586.94 342.764 581.714 348.939C578.589 350.221 576.266 352.504 574.128 355.01C571.93 354.847 571.344 357.211 569.659 357.849C565.695 359.828 563.208 363.505 559.941 366.285C555.673 374.869 551.323 383.401 545.161 390.851C542.623 386.411 537.842 387.056 533.856 385.884C533.395 385.454 532.942 385.025 532.482 384.587C529.891 379.621 531.643 383.497 533.135 385.202C531.176 385.892 528.629 386.596 525.601 386.967C522.565 387.337 519.907 387.271 517.828 387.07L517.836 387.078ZM546.587 346.27C548.027 343.809 546.134 341.57 545.837 339.346C545.518 336.944 546.201 334.75 545.978 332.474C545.807 330.77 544.382 330.866 543.231 330.77C542.734 330.725 541.969 331.036 541.717 331.437C541.064 332.46 545.317 345.217 546.587 346.27ZM557.291 302.764C557.915 307.271 555.354 311.214 560.513 313.438C560.743 309.813 561.938 306.411 557.291 302.764Z" fill="#095B62"/>
<path d="M441.449 663.549C438.205 663.512 434.961 663.467 431.709 663.43C429.059 663.534 426.364 663.616 423.633 663.668C421.524 663.712 419.438 663.742 417.382 663.749C413.136 658.686 408.273 651.896 404.042 643.267C401.31 637.7 399.373 632.467 397.985 627.856C397.94 624.312 398.037 620.458 398.341 616.351C398.63 612.489 399.068 608.879 399.595 605.55C399.989 598.99 398.074 579.398 398.601 576.203C400.041 567.418 404.332 547.648 408.904 545.202C414.294 542.326 421.316 545.825 424.457 547.337C447.759 558.538 443.728 549.761 478.247 565.713C491.045 571.629 507.309 580.094 525.267 592.037C527.679 594.846 537.738 607.174 536.788 625.002C535.489 649.272 514.948 662 513.159 663.067C464.833 662.333 446.846 662.785 441.434 663.541L441.449 663.549ZM426.565 601.933C426.958 601.874 427.352 601.814 427.745 601.748C427.344 598.508 427.047 595.246 426.491 592.037C426.298 590.932 425.496 589.598 424.048 590.035C422.942 590.369 423.002 591.77 423.276 592.637C424.271 595.765 425.451 598.834 426.565 601.925V601.933Z" fill="#013A49"/>
<path d="M543.001 634.302C544.078 628.817 543.12 623.45 544.04 618.031C546.082 606.015 553.112 596.415 558.627 586.059C561.597 585.533 563.92 584.265 565.16 581.248C568.85 572.234 572.962 563.354 575.145 553.828C581.061 528.061 583.875 502.464 569.302 478.246C577.513 479.084 584.639 482.701 591.432 487.053C592.79 487.92 593.918 489.099 595.633 489.217C597.088 492.627 600.288 491.033 602.708 491.678C598.462 501.189 603.97 509.832 605.432 518.743C607.941 534.043 605.454 548.735 601.839 563.428C600.258 569.847 598.751 576.037 598.655 582.946C598.528 592.523 592.79 600.922 587.698 609.061C582.494 617.394 573.697 622.13 567.357 629.321C566.407 630.396 565.346 631.359 564.336 632.382C558.506 638.288 557.168 645.036 560.32 652.627C560.706 653.561 560.914 654.577 561.203 655.555C559.147 657.297 557.091 659.047 553.891 661.76C557.967 662.034 560.075 662.175 562.176 662.316C562.168 663.087 562.154 663.865 562.146 664.636C553.535 664.651 544.924 664.666 536.313 664.688C536.855 660.766 535.481 660.04 531.562 660.818C527.093 661.7 522.691 665.488 517.806 662.041C519.677 660.922 521.518 659.766 523.418 658.691" fill="#015C55"/>
<path d="M637.242 634.231C640.043 628.202 638.244 624.419 631.845 622.882C628.311 622.029 624.815 621.036 619.767 619.709C626.5 618.419 631.236 620.895 635.98 622.066C640.857 623.267 643.626 623 643.425 617.189C643.396 616.21 643.767 615.202 644.049 614.231C645.979 607.554 643.702 603.356 637.219 601.636C637.368 601.377 637.583 600.917 637.628 600.932C649.438 605.113 650.923 595.254 654.828 587.752C648.288 586.381 641.748 584.92 635.163 583.675C633.092 583.282 631.199 582.874 629.818 581.162C637.197 580.643 644.182 582.711 651.242 584.364C655.815 585.432 659.95 585.669 661.858 579.702C662.897 576.455 661.865 575.054 659.304 573.838L659.371 573.756C662.325 573.89 665.295 574.046 665.54 569.887C665.644 568.152 667.061 567.678 668.249 566.929C670.469 565.528 672.785 564.223 674.812 562.578C680.015 558.352 679.971 557.255 674.856 553.89C676.408 551.436 681.025 554.883 681.522 550.458C690.831 550.458 700.148 550.458 709.457 550.458C709.457 550.035 709.449 549.613 709.442 549.197H683.875C684.024 546.974 685.449 545.558 687.216 544.639C689.45 543.475 690.319 541.762 690.208 539.383C703.362 539.576 716.16 541.51 728.795 545.447C739.64 548.819 738.519 555.891 733.442 561.644C725.105 571.073 714.052 576.203 702.278 579.968C696.963 581.673 691.492 582.971 686.355 585.091C683.742 586.166 680.112 587.485 681.841 592.037C684.744 599.657 680.327 605.491 671.805 605.802C669.66 605.884 667.9 604.898 665.933 604.594C663.008 604.142 660.18 604.935 659.601 607.908C659.059 610.702 660.173 613.63 663.662 614.305C666.958 614.942 670.075 615.869 670.328 619.798C670.647 624.794 671.523 630.102 665.324 632.785C659.111 635.476 653.016 638.434 646.87 641.281C643.655 638.945 640.448 636.603 637.234 634.268L637.242 634.231Z" fill="#015C55"/>
<path d="M402.186 626.574C406.915 630.169 406.128 636.092 407.954 640.866C411.057 648.983 416.447 656.092 418.221 664.735C409.595 665.277 400.969 665.121 392.343 664.684C392.328 664.254 392.306 663.831 392.291 663.401C389.886 656.092 391.407 648.575 391.229 641.162C391.036 633.32 394.451 629.191 402.186 626.566V626.574Z" fill="#013341"/>
<path d="M635.913 364.844C638.147 361.849 636.299 356.764 640.968 355.015C643.054 355.875 644.68 354.229 646.58 353.992C651.131 353.421 654.1 354.444 653.232 359.877C647.679 362.302 642 364.281 635.913 364.837V364.844Z" fill="#07966C"/>
<path d="M658.087 663.486C657.968 663.22 657.953 662.938 658.042 662.656C686.021 662.538 713.992 662.419 741.971 662.293C742.832 662.293 743.552 662.523 743.864 663.435C715.269 663.449 686.682 663.464 658.087 663.479V663.486Z" fill="#095B62"/>
<path d="M658.087 663.49C686.682 663.475 715.269 663.46 743.864 663.445C743.931 665.017 742.721 664.846 741.793 664.846C713.896 664.802 685.999 664.735 658.101 664.676C658.101 664.283 658.094 663.89 658.087 663.497V663.49Z" fill="#015C55"/>
<path d="M255.321 663.594C255.833 662.697 256.346 661.807 256.865 660.91C257.778 664.491 260.733 663.297 262.945 663.305C284.763 663.423 306.587 663.431 328.405 663.468C328.397 663.838 328.383 664.216 328.353 664.587C327.573 664.78 326.794 664.965 326.015 665.158C322.674 665.143 319.333 665.128 316 665.106C314.835 665.106 313.677 665.106 312.511 665.106C307.545 665.121 302.579 665.136 297.612 665.15C296.417 665.15 295.215 665.143 294.02 665.136C292.75 665.136 291.481 665.136 290.219 665.136C289.031 665.136 287.836 665.136 286.648 665.136C283.33 665.136 280.012 665.15 276.701 665.158C275.498 665.158 274.303 665.158 273.1 665.158C267.221 665.01 261.342 664.861 255.462 664.713C255.499 664.335 255.462 663.957 255.336 663.594H255.321Z" fill="#013A49"/>
<path d="M328.353 664.578C328.383 664.207 328.397 663.836 328.405 663.458C329.615 663.443 330.832 663.421 332.042 663.406C352.123 663.406 372.203 663.406 392.283 663.406C392.298 663.836 392.321 664.259 392.335 664.689C373.873 664.852 355.411 665.007 336.949 665.171C335.761 665.171 334.566 665.171 333.371 665.163C332.109 665.163 330.855 665.171 329.593 665.178C329.177 664.978 328.754 664.785 328.338 664.585L328.353 664.578Z" fill="#014D56"/>
<path d="M517.806 662.037C522.698 665.484 527.093 661.703 531.562 660.814C535.481 660.043 536.855 660.762 536.313 664.683C528.095 664.698 519.877 664.706 511.652 664.72C511.763 664.379 511.771 664.038 511.667 663.697C513.775 663.371 515.483 661.585 517.799 662.037H517.806Z" fill="#014D56"/>
<path d="M573.2 664.666C569.518 664.658 565.828 664.643 562.146 664.636C562.154 663.865 562.168 663.087 562.176 662.316C562.963 661.945 563.742 661.574 564.529 661.204C567.402 660.655 573.2 663.428 573.2 664.673V664.666Z" fill="#014D56"/>
<path d="M674.077 360.299C667.529 361.945 660.982 361.989 654.442 360.27C660.989 360.277 667.529 360.284 674.077 360.299Z" fill="#013341"/>
<path d="M619.975 319.582C621.548 317.528 623.122 315.467 624.696 313.414C624.985 314.704 624.607 316.246 626.062 317.098C624.518 319.107 622.387 319.693 619.975 319.582Z" fill="#FECCB9"/>
<path d="M328.353 664.578C328.769 664.778 329.192 664.971 329.607 665.171L328.353 664.578Z" fill="#FECCB9"/>
<path d="M255.321 663.594C255.44 663.957 255.485 664.328 255.447 664.713C255.217 664.861 254.972 664.965 254.705 665.024C254.913 664.55 255.121 664.068 255.329 663.594H255.321Z" fill="#FECCB9"/>
<path d="M569.302 478.255C583.875 502.473 581.061 528.07 575.145 553.837C572.962 563.362 568.85 572.243 565.16 581.257C563.928 584.274 561.604 585.542 558.627 586.068C557.566 583.436 555.925 580.553 553.528 580.242C551.672 580.004 550.647 581.472 548.22 582.065C546.267 582.547 543.424 582.465 539.43 580.064C528.778 572.821 518.133 565.571 507.48 558.329C508.245 557.462 509.484 555.816 510.034 553.436C510.286 552.347 510.338 551.361 510.308 550.583C510.375 548.929 510.435 547.276 510.501 545.623C515.891 530.59 522.334 519.048 527.419 511.109C527.419 511.109 539.215 492.695 553.646 482.984C557.217 480.583 560.877 479.448 561.099 479.382C564.425 478.373 567.335 478.218 569.302 478.255Z" fill="#07966C"/>
<path d="M533.143 385.2C533.202 385.259 533.796 385.815 533.863 385.875C534.858 398.536 538.465 407.313 541.62 413.021C546.431 421.723 551.776 426.208 556 437.431C558.286 443.51 559.214 448.832 559.637 452.361C555.376 452.88 554.322 456.586 552.481 459.514C551.649 458.951 550.41 458.573 550.039 457.787C544.538 446.06 533.759 439.188 525.007 430.463C518.4 423.881 515.586 418.662 514.05 411.516C511.793 401.034 515.468 391.82 517.851 387.068C522.735 386.238 533.106 385.148 533.158 385.193L533.143 385.2Z" fill="#013341"/>
<path d="M553.654 482.985C546.327 488.544 536.238 497.596 527.427 511.109C515.007 530.16 511.311 548.604 510.041 558.989C508.2 558.27 496.924 549.753 496.946 549.375C507.599 518.344 519.825 497.722 528.763 484.905C534.769 476.291 545.109 462.873 550.373 464.979C552.414 465.802 553.468 468.856 554.159 470.872C556.118 476.573 554.248 481.561 553.654 482.977V482.985Z" fill="#013341"/>
<path d="M628.801 408.635C632.179 404.787 636.945 403.349 641.228 401.214C643.7 399.984 646.476 399.435 648.585 397.426C649.542 396.515 650.418 397.352 651.146 398.079C652.036 398.968 651.146 399.702 650.641 399.954C643.641 403.52 636.796 407.501 628.794 408.635H628.801Z" fill="#FAEEE4"/>
<path d="M584.023 441.155C583.199 441.229 582.279 441.244 582.004 440.332C581.878 439.91 582.204 439.005 582.583 438.82C588.603 435.781 594.683 432.86 600.696 429.821C601.758 429.279 602.544 429.102 603.25 430.139C604.103 431.4 602.789 432.156 602.21 432.445C596.19 435.44 590.095 438.279 584.023 441.155Z" fill="#FAEEE4"/>
<path d="M512.394 462.004C514.926 470.455 517.465 478.898 519.996 487.349C519.461 487.512 518.927 487.675 518.393 487.838C514.592 479.78 513.144 470.996 510.85 462.478C511.363 462.323 511.882 462.167 512.394 462.004Z" fill="#FAEEE4"/>
<path d="M469.925 496.504C471.677 503.598 473.436 510.692 475.188 517.786C474.669 517.92 474.142 518.053 473.622 518.194C470.311 511.5 469.836 504.08 468.284 496.934C468.826 496.793 469.376 496.652 469.918 496.511L469.925 496.504Z" fill="#FAEEE4"/>
<path d="M598.907 456.074C601.639 452.39 605.343 452.471 608.142 450.855C608.691 450.537 609.619 449.877 609.998 451.063C610.243 451.841 610.027 452.886 609.136 453.049C605.915 453.62 603.413 456.534 598.907 456.081V456.074Z" fill="#FAEEE4"/>
<path d="M552.473 459.521C554.314 456.593 555.376 452.886 559.63 452.367C560.446 453.724 561.738 455.236 559.125 456C556.645 456.726 555.361 459.624 552.473 459.521Z" fill="#FAEEE4"/>
<path d="M631.518 541.963V513.164C632.03 513.164 632.535 513.164 633.047 513.164C633.96 522.727 633.47 532.297 633.329 541.867C632.728 541.896 632.119 541.934 631.518 541.963Z" fill="#015C55"/>
<path d="M633.879 613.423C622.996 613.615 612.559 608.938 601.565 610.317C612.618 608.345 623.33 609.968 633.879 613.423Z" fill="#015C55"/>
<path d="M613.613 535.973V568.686H612.937V535.832C613.16 535.884 613.39 535.928 613.613 535.98V535.973Z" fill="#015C55"/>
<path d="M683.876 549.175H709.442C709.442 549.598 709.449 550.02 709.457 550.436C700.148 550.436 690.831 550.436 681.522 550.436C681.255 548.056 683.178 549.754 683.876 549.175Z" fill="#013A49"/>
<path d="M646.914 515.941C645.222 509.047 645.014 502.16 646.981 495.273C646.959 502.16 646.937 509.054 646.914 515.941Z" fill="#359297"/>
<path d="M646.914 515.943C646.937 509.056 646.959 502.162 646.981 495.276C647.389 495.254 647.798 495.291 648.206 495.38C648.221 502.229 648.228 509.086 648.243 515.943H646.914Z" fill="#014D56"/>
<path d="M648.243 515.934C648.228 509.078 648.221 502.228 648.206 495.371C650.322 502.221 650.181 509.078 648.243 515.934Z" fill="#095B62"/>
<path d="M654.419 571.932C650.381 573.044 647.011 570.968 641.74 569.278C647.516 568.27 650.812 570.761 654.419 571.932Z" fill="#015C55"/>
<path d="M633.092 600.495H624.874C627.806 599.479 630.702 599.249 633.092 600.495Z" fill="#015C55"/>
<path d="M629.811 581.153H623.857C625.906 579.789 627.925 579.322 629.811 581.16V581.153Z" fill="#015C55"/>
<path d="M664.263 508.707C664.352 507.469 664.582 506.305 665.866 505.734C665.948 505.697 666.304 505.964 666.304 506.09C666.341 507.506 665.376 508.173 664.248 508.692H664.255L664.263 508.707Z" fill="#015C55"/>
<path d="M659.297 573.831C658.769 573.705 658.25 573.579 657.723 573.445C657.871 573.23 658.02 573.008 658.168 572.793C658.569 573.112 658.97 573.431 659.363 573.749L659.297 573.831Z" fill="#015C55"/>
<path d="M660.596 514.868C660.477 515.379 660.358 515.898 660.239 516.41C660.024 516.284 659.816 516.158 659.601 516.024C659.913 515.617 660.224 515.216 660.536 514.809L660.588 514.86L660.596 514.868Z" fill="#015C55"/>
<path d="M664.248 508.699C664.263 509.73 664.077 510.664 663.068 511.22L662.956 511.108C662.986 510.093 663.253 509.203 664.263 508.714H664.255L664.248 508.699Z" fill="#015C55"/>
<path d="M660.544 514.816C660.737 514.645 660.93 514.467 661.123 514.297C660.945 514.49 660.774 514.682 660.596 514.868L660.544 514.816Z" fill="#015C55"/>
<path d="M663.068 511.213C662.852 511.391 662.644 511.569 662.429 511.746C662.607 511.532 662.778 511.317 662.956 511.102L663.068 511.213Z" fill="#015C55"/>
<path d="M546.594 346.266C545.317 345.214 541.071 332.456 541.724 331.433C541.977 331.033 542.741 330.721 543.239 330.766C544.389 330.862 545.815 330.766 545.985 332.471C546.216 334.747 545.525 336.948 545.844 339.343C546.141 341.567 548.034 343.805 546.594 346.266Z" fill="#FAEEE4"/>
<path d="M557.299 302.762C561.946 306.409 560.751 309.811 560.52 313.436C555.361 311.212 557.922 307.269 557.299 302.762Z" fill="#FECCB9"/>
<path d="M306.12 593.569C314.538 588.906 340.602 574.925 374.163 578.765C379.916 579.425 388.572 580.907 398.794 584.74C399.195 588.127 399.499 591.804 399.633 595.733C399.751 599.202 399.722 602.486 399.603 605.548C392.231 604.821 385.929 607.357 380.532 612.145C378.476 613.969 377.088 614.184 374.794 612.464C372.559 610.789 369.531 609.128 367.177 612.249C359.605 622.286 349.428 619.321 339.547 618.053C340.958 617.119 331.025 622.308 326.23 622.961C317.908 624.087 314.56 630.463 318.829 637.253C320.877 640.514 323.706 643.309 325.562 646.652C328.479 651.908 333.846 656.319 332.042 663.413C330.832 663.428 329.615 663.45 328.405 663.465C306.587 663.428 284.763 663.42 262.945 663.302C260.733 663.287 257.778 664.488 256.865 660.907C256.175 657.749 259.434 654.562 256.806 651.411C259.612 641.493 264.244 632.308 268.32 622.901C277.361 618.795 282.84 610.381 290.538 604.643C291.971 604.377 292.743 603.509 292.891 602.071C295.675 600.01 300.211 596.852 306.127 593.576L306.12 593.569Z" fill="#07966C"/>
<path d="M354.112 614.495C360.793 611.234 362.33 607.616 367.348 607.883C372.188 608.143 375.195 610.908 375.195 610.908C376.457 611.827 377.065 612.59 378.216 612.605C380.213 612.635 380.74 610.381 383.412 608.454C385.55 606.912 387.792 606.586 392.276 605.941C394.08 605.681 396.574 605.444 399.595 605.555C400.709 612.531 403.686 619.277 402.179 626.578C394.436 629.203 391.029 633.332 391.222 641.174C391.4 648.587 389.878 656.104 392.283 663.413C372.203 663.413 352.123 663.413 332.035 663.413C330.157 654.866 326.735 649.788 323.847 646.69C321.664 644.347 319.081 642.375 317.136 638.098C316.32 636.297 314.887 633.042 315.34 628.847C315.429 627.987 316.253 621.197 321.204 618.18C325.309 615.674 327.833 618.476 337.083 618.18C340.564 618.068 347.223 617.853 354.097 614.495H354.112Z" fill="#015C55"/>
<path d="M426.565 601.933C425.451 598.841 424.271 595.772 423.276 592.644C423.002 591.777 422.935 590.376 424.048 590.042C425.503 589.605 426.298 590.939 426.491 592.044C427.047 595.261 427.344 598.515 427.745 601.755C427.352 601.814 426.958 601.873 426.565 601.94V601.933Z" fill="#FECCB9"/>
<path d="M616.152 323.229C616.946 321.517 618.327 320.412 619.975 319.582C619.871 322.021 618.572 323.207 616.152 323.229Z" fill="#FECCB9"/>
<path d="M698.403 191.508C698.967 204.473 685.65 222.568 673.965 222.257C673.691 221.152 672.414 215.451 675.851 209.773C678.954 204.651 683.824 202.968 685.063 202.575C686.719 202.598 687.231 201.174 688.226 200.262C691.522 197.245 693.697 192.887 698.411 191.515L698.403 191.508Z" fill="#095B62"/>
<path d="M695.604 190.212C685.82 189.945 677.61 195.809 673.008 206.298C671.07 210.849 670.662 214.541 670.617 216.891C670.528 221.198 671.634 221.976 672.057 222.191C672.696 222.517 673.423 222.406 673.965 222.25C675.042 215.423 677.632 211.405 679.785 209.004C682.547 205.927 684.87 205.186 689.042 201.761C693.533 198.07 696.532 194.244 698.403 191.502C698.366 191.183 698.299 190.279 695.604 190.204V190.212ZM679.444 205.586C678.909 206.409 678.397 207.009 677.9 207.417C678.397 207.002 678.909 206.402 679.444 205.586Z" fill="#359297"/>
<path d="M229.866 249.619C219.86 229.012 219.533 218.456 221.56 212.607C221.76 212.036 222.161 210.932 222.487 209.279C224.714 197.789 217.759 184.823 212.674 184.994C210.573 185.068 208.42 187.388 208.531 189.13C208.672 191.354 212.444 191.71 214.203 195.735C214.752 196.988 215.272 198.997 214.567 199.508C213.936 199.96 212.406 199.182 210.736 197.662C210.781 200.895 210.424 208.767 205.102 216.21C202.689 219.575 199.972 221.858 197.842 223.341C201.977 236.143 206.111 248.945 210.246 261.74" fill="#FEC3AF"/>
<path d="M486.464 540.444C479.999 535.062 471.039 528.657 459.48 523.09C449.11 518.094 439.563 515.188 431.902 513.431C431.234 512.037 430.566 510.636 429.905 509.235C421.472 491.444 413.693 473.728 406.536 456.115C404.755 455.418 401.867 454.543 398.326 454.654C394.347 454.78 393.137 456.04 388.728 456.315C384.608 456.567 385.038 455.499 379.641 455.418C372.648 455.314 368.744 457.049 367.868 457.464C366.257 458.212 366.212 458.494 363.896 459.895C354.617 465.514 349.242 464.751 347.372 469.094C346.659 470.74 346.637 472.705 346.615 474.083C346.585 476.507 347.038 478.487 347.439 479.791C368.469 508.998 385.61 529.25 390.873 534.328C396.797 540.043 402.602 544.565 402.602 544.565C403.849 545.544 405.074 546.463 406.343 547.382C418.666 556.315 432.303 563.068 447.143 567.842C455.791 570.622 464.246 573.994 472.79 577.093C483.933 567.33 490.391 555.818 486.479 540.451L486.464 540.444Z" fill="#FF8C81"/>
<path d="M382.885 424.238C385.395 419.901 386.619 414.838 389.811 414.638C390.984 414.564 392.514 415.142 400.531 428.3C401.793 430.375 406.856 438.819 409.328 449.412C409.625 450.702 409.847 451.821 409.394 453.066C407.331 458.767 394.221 458.745 389.997 458.878C379.753 459.197 364.208 462.266 341.633 474.875C333.972 460.924 334.819 453.333 337.254 448.945C344.707 435.483 372.589 442.014 382.878 424.245L382.885 424.238Z" fill="#013341"/>
<path d="M288.749 620.956C282.305 618.509 275.981 615.648 269.374 613.758C264.534 612.371 262.663 609.903 263.465 605.159C266.137 589.228 269.255 549.251 271.564 532.334C275.157 506.004 278.794 480.318 289.588 450.77C291.807 444.699 295.185 436.107 300.025 426.011C305.674 425.299 315.592 424.862 326.764 428.858C346.273 435.833 355.738 451.363 358.351 456.019C350.571 471.4 342.606 483.024 336.957 491.408C331.53 499.458 327.648 504.247 324.797 507.234C318.012 514.343 303.41 530.778 302.898 532.675C302.66 533.55 306.179 552.497 306.209 560.837C306.276 580.059 302.371 598.68 295.72 616.745C294.368 620.407 292.424 621.756 288.756 620.941L288.749 620.956Z" fill="#FECCB9"/>
<path d="M297.731 429.377C299.661 422.905 304.175 417.464 307.649 411.63C309.089 409.214 309.78 407.486 309.349 404.462C307.76 393.291 308.325 381.993 308.896 370.741C308.97 369.273 310.136 368.383 311.665 367.85C312.511 367.887 313.358 367.924 314.204 367.961C320.187 369.829 326.215 369.325 332.25 368.198C336.83 367.294 342.843 365.626 349.398 362.416C355.233 359.555 359.799 356.308 363.146 353.543C365.797 352.89 368.87 351.934 372.173 350.489C374.831 349.332 377.147 348.079 379.114 346.871C380.317 348.828 381.527 350.785 382.729 352.742C370.555 375.307 346.303 381.445 321.056 386.33C343.474 385.789 362.939 379.584 378.045 364.766C379.419 363.417 380.725 360.022 383.739 363.543C384.593 366.033 385.825 369.844 387.013 374.566C391.229 391.297 395.386 407.805 389.121 425.596C383.323 442.053 371.342 451.845 367.935 454.558C363.815 457.842 359.969 460.096 357.074 461.601C356.465 461.482 355.255 461.222 353.786 460.785C353.786 460.785 344.781 458.065 328.175 441.289C322.756 436.471 313.64 430.97 297.731 429.377Z" fill="#339BA0"/>
<path d="M346.488 234.904C346.488 234.904 346.488 234.904 346.496 234.904C346.496 234.889 346.503 234.874 346.503 234.859L346.488 234.904Z" fill="#FFA22B"/>
<path d="M276.523 326.122C268.268 323.171 257.771 318.353 247.074 310.295C224.945 293.624 214.656 272.682 210.246 261.748C210.209 259.02 210.179 256.277 210.165 253.512C210.135 247.834 210.165 242.237 210.246 236.715C216.616 239.888 221.166 246.085 228.523 247.619C235.991 258.983 248.455 273.55 267.882 282.008C270.369 283.09 272.826 284.009 275.238 284.787C275.283 285.773 275.327 286.767 275.372 287.76C275.936 300.651 276.315 313.438 276.53 326.122H276.523Z" fill="#FEC3AF"/>
<path d="M365.552 340.346C365.982 340.524 366.301 340.865 366.309 341.206C366.309 341.68 365.685 342.244 364.802 342.14C365.871 346.061 366.94 349.99 368.009 353.911C366.346 355.075 363.963 356.676 361.001 358.404C357.015 360.731 350.007 364.757 340.104 367.551C334.448 369.145 328.204 370.872 319.92 370.294C317.114 370.101 310.938 369.049 310.121 368.144C309.126 367.04 309.208 365.49 309.223 365.016C309.342 361.977 309.089 343.519 308.733 318.04C309.802 316.691 316.928 308.018 328.034 308.122C332.213 308.159 335.576 309.434 337.751 310.516C338.983 309.026 340.832 308.255 342.561 308.589C344.952 309.049 346.822 311.569 346.54 314.505C363.74 312.503 368.766 314.364 369.694 316.81C371.142 320.635 363.666 328.774 364.646 334.445C364.757 335.098 364.03 336.588 364.512 338.3C364.78 339.241 365.232 339.938 365.552 340.353V340.346Z" fill="#FEC3AF"/>
<path d="M367.935 454.566C379.218 442.92 384.155 431.363 386.389 424.766C393.917 402.542 389.759 382.119 387.005 372.972C385.877 369.228 385.112 365.403 383.732 361.719C385.684 360.488 387.629 359.258 389.581 358.027C393.894 361.734 396.908 366.033 399.106 370.629C399.907 372.305 402.26 376.982 403.767 385.01C404.792 390.459 408.556 410.496 398.2 428.954C395.988 432.898 393.672 435.796 392.632 437.049C386.115 444.899 378.958 448.984 375.447 450.948C372.389 452.66 369.731 453.824 367.927 454.558L367.935 454.566Z" fill="#095B62"/>
<path d="M276.523 326.12C276.196 321.295 275.929 316.35 275.736 311.295C275.424 303.177 275.313 295.327 275.372 287.759C282.179 290.576 286.811 287.818 290.241 281.977C294.012 282.866 297.219 284.616 299.765 286.928C306.758 293.289 307.59 304.519 303.9 312.577C299.513 322.169 288.318 327.914 276.53 326.12H276.523Z" fill="#FEC3AF"/>
<path d="M290.234 281.971C286.804 287.812 282.172 290.57 275.365 287.753C275.32 286.767 275.275 285.774 275.231 284.78C273.397 267.108 280.88 251.971 288.222 236.752C294.124 224.521 300.419 212.601 310.166 202.86C312.489 200.54 314.82 198.739 318.316 199.45C318.331 200.266 318.354 201.074 318.368 201.889C310.329 210.214 305.815 220.866 299.617 230.392C296.447 235.262 292.424 239.435 289.269 244.232C280.932 256.923 281.066 269.606 290.234 281.956V281.971Z" fill="#FECCB9"/>
<path d="M351.677 93.9339C347.342 104.468 321.939 110.25 313.937 102.511C311.227 99.8939 310.492 96.4691 310.217 92.8961C323.097 86.6322 335.828 86.2319 348.426 93.7412C349.257 94.2378 350.586 93.8894 351.677 93.9413V93.9339Z" fill="#573230"/>
<path d="M368.009 353.912C366.94 349.99 365.871 346.061 364.802 342.14C365.841 341.932 366.895 341.71 367.964 341.48C369.286 341.191 370.444 340.939 371.216 340.739C372.574 340.391 374.497 339.738 376.798 338.434C377.073 339.62 377.377 340.843 377.711 342.088C378.157 343.749 378.632 345.35 379.114 346.877C377.615 347.715 376.078 348.612 374.512 349.583C372.188 351.021 370.021 352.474 368.009 353.912Z" fill="#FF8C81"/>
<path d="M379.114 346.875C384.281 350.685 391.222 356.919 396.76 366.356C398.809 369.848 400.33 373.213 401.481 376.275C391.556 364.266 388.683 361.723 388.178 362.086C387.377 362.664 392.128 370.085 394.147 380.166C394.793 383.406 394.681 388.157 391.073 394.599C389.611 383.48 387.562 375.682 385.959 370.648C385.959 370.648 383.212 362.02 381.267 362.464C380.851 362.561 379.909 363.48 379.768 363.621C379.292 364.103 378.988 364.503 378.973 364.518C378.676 364.911 370.689 374.584 354.253 380.974C337.009 387.683 319.816 387.134 319.653 386.052C319.512 385.081 333.364 385.133 349.814 376.111C360.281 370.374 365.507 367.498 369.583 362.331C369.739 362.131 369.932 361.894 369.932 361.894C374.935 355.504 377.607 350.411 379.122 346.875H379.114Z" fill="#095B62"/>
<path d="M314.033 173.398C317.619 173.799 321.197 174.199 324.782 174.599C325.532 174.103 326.267 174.169 326.453 174.466C326.608 174.718 326.415 175.244 325.963 175.674C326.133 177.046 326.297 178.424 326.467 179.796C326.304 187.068 327.328 194.206 328.962 201.271C328.167 201.627 327.38 201.983 326.586 202.346C326.118 202.546 325.495 202.724 324.767 202.672C322.206 202.501 320.878 199.699 320.803 199.544C319.304 196.423 317.76 192.613 316.513 188.172C314.931 182.546 314.278 177.49 314.041 173.398H314.033Z" fill="#013341"/>
<path d="M205.48 220.368C204.753 222.347 203.008 223.259 201.383 224.297C196.736 224.282 197.344 219.226 194.657 217.321C194.724 216.387 194.783 215.446 194.85 214.512C196.981 213.229 199.111 211.954 201.249 210.672C202.667 210.753 204.085 210.842 205.495 210.924C205.495 214.067 205.488 217.217 205.48 220.361V220.368Z" fill="#014D56"/>
<path d="M362.597 88.9062C364.29 91.1746 367.244 89.1509 370.748 92.0271C362.902 89.7068 357.727 94.3177 351.648 93.9618C354.268 90.0627 358.492 89.6105 362.597 88.9062Z" fill="#013341"/>
<path d="M543.899 579.812C543.625 582.859 542.452 591.087 535.867 597.9C533.039 600.828 530.055 602.629 527.761 603.734C525.616 602.333 523.426 600.939 521.184 599.56C508.935 592.021 496.857 585.869 485.254 580.82C487.519 579.471 489.864 577.937 492.247 576.18C500.302 570.25 506.196 563.704 510.435 557.996C513.968 560.057 517.613 562.281 521.332 564.675C525.051 567.069 540.663 578.811 543.907 579.805L543.899 579.812Z" fill="#FE6949"/>
<path d="M510.435 558.004C508.764 562.37 504.422 571.763 494.467 577.76C491.728 579.413 489.055 580.51 486.672 581.251C482.04 579.865 477.415 578.479 472.783 577.085C475.248 574.794 480.815 569.012 483.317 559.642C486.197 548.834 483.22 539.961 482.047 536.922C485.499 539.635 488.944 542.348 492.396 545.061C498.409 549.376 504.422 553.69 510.435 558.004Z" fill="#FC9687"/>
<path d="M332.013 201.404C331.545 201.182 330.981 200.863 330.409 200.381C329.273 199.44 328.672 198.358 328.368 197.683C326.052 197.409 324.3 197.564 323.112 197.757C322.318 197.891 318.918 198.506 318.086 198.476C318.027 198.476 317.76 198.461 317.411 198.528C317.195 198.573 316.988 198.647 316.78 198.743C316.164 199.677 315.325 201.093 314.657 202.946C314.093 204.51 313.959 205.496 313.684 206.616C312.882 209.803 311.435 211.834 310.626 213.191C307.745 218.039 303.625 230.367 307.924 234.792C308.51 235.392 310.759 237.401 313.922 237.609C314.575 237.653 315.117 237.609 315.488 237.564L315.473 237.579C325.049 237.698 334.529 237.928 342.48 230.863C346.555 227.238 349.769 222.976 352.316 218.447C357.082 209.966 360.986 201.011 365.247 192.257C361.729 191.805 358.21 191.642 354.699 192.346" fill="#FEC3AF"/>
<path d="M354.684 192.355C354.35 194.134 352.939 200.435 347.231 204.4C345.501 205.601 341.99 208.04 337.358 207.254C332.102 206.365 329.392 202.006 328.954 201.272C328.19 198.151 327.492 194.578 327.032 190.612C326.571 186.647 326.43 183.007 326.46 179.797C328.308 177.662 331.248 174.719 335.472 172.102C337.395 170.916 338.783 170.294 339.421 169.968C342.947 168.174 347.231 163.474 350.438 150.598C352.011 172.369 353.155 188.144 353.199 189.641C353.207 189.93 353.207 191.02 354.691 192.355H354.684Z" fill="#FF8C81"/>
<path d="M351.091 237.151C342.064 245.431 330.766 248.226 322.6 244.134C320.781 243.222 317.953 241.391 315.458 237.588C325.035 237.707 334.514 237.936 342.465 230.872C346.54 227.247 349.755 222.985 352.301 218.455C357.067 209.975 360.971 201.02 365.232 192.266C367.675 192.288 369.894 193.007 371.899 194.393C369.969 198.47 368.551 201.828 367.653 204.037C364.423 211.999 363.51 213.904 361.328 218.441C360.957 219.212 359.22 222.814 356.673 227.484C354.662 231.176 352.761 234.415 351.083 237.158L351.091 237.151Z" fill="#FECCB9"/>
<path d="M351.648 93.9633C351.648 93.9633 351.655 93.9633 351.662 93.9633C351.662 93.9559 351.67 93.941 351.677 93.9336L351.648 93.9633Z" fill="#013341"/>
<path d="M376.049 98.1467C376.019 98.1095 375.989 98.0723 375.96 98.0426C375.937 98.0426 375.907 98.0426 375.885 98.0352L376.056 98.1541L376.049 98.1467Z" fill="#013341"/>
<path d="M554.567 141C546.832 127.027 533.418 120.163 518.712 115.455C512.342 113.417 505.157 111.26 499.351 111.163C495.603 111.104 492.114 111.304 488.884 111.69C479.999 112.742 472.976 115.107 468.708 116.745C447.41 124.951 446.912 134.136 432.741 136.019C430.277 136.345 418.065 137.694 409.528 130.511C406.373 127.857 403.975 127.294 399.521 114.01C397.049 106.627 394.451 98.5836 386.501 94.2544C378.973 90.1551 371.164 88.035 362.605 88.9097C364.297 91.1781 367.252 89.1544 370.756 92.0306C362.916 89.7178 357.742 94.3138 351.67 93.9653C347.297 104.477 321.939 110.244 313.944 102.512C311.234 99.8957 310.5 96.4709 310.225 92.8979C303.759 95.5739 298.785 100.155 295.178 105.922C291.629 111.593 288.511 125.307 294.101 130.274C298.318 123.706 298.904 114.899 306.261 110.007C311.138 121.326 321.449 125.67 334.507 115.856C336.318 121.586 338.07 127.138 339.822 132.69C340.186 134.195 340.891 136.093 342.279 137.902C343.697 139.755 344.929 140.355 345.494 140.578C346.392 140.941 347.015 140.933 347.305 140.911C348.144 140.859 348.73 140.622 349.161 140.274C350.252 139.377 350.052 138.28 350.853 136.137C351.373 134.766 352.182 132.609 354.045 131.867C355.315 131.363 356.577 131.667 357.082 131.83C360.422 132.928 361.447 137.612 361.729 138.902C362.07 140.459 363.206 145.648 359.657 149.985C356.287 154.099 351.284 154.277 350.512 154.291C350.378 156.13 350.245 157.961 350.104 159.799C351.135 169.747 352.175 179.688 353.192 189.636C353.31 190.778 353.533 191.801 354.684 192.349C358.195 191.638 361.714 191.808 365.232 192.26C367.675 192.283 369.894 193.002 371.899 194.388C372.849 194.944 374.133 192.379 374.89 194.714C376.791 196.063 379.612 198.131 382.908 200.793C388.505 205.322 391.675 208.502 396.47 212.95C404.361 220.259 404.072 219.317 410.976 225.678C424.234 237.894 427.812 243.847 431.078 242.372C435.592 240.333 433.127 230.377 438.992 228.213C441.404 227.323 443.275 227.798 447.477 229.199C461.039 233.721 473.986 233.261 486.257 225.433C492.544 221.415 493.739 215.277 490.377 208.598C489.04 205.937 486.271 204.566 485.514 200.437C493.836 206.426 503.13 206.041 512.164 205.151C521.585 204.225 530.723 201.564 538.562 195.759C540.01 194.885 541.561 194.143 542.897 193.113C561.174 179.088 565.375 160.555 554.552 141.008L554.567 141ZM380.22 161.83C381.868 162.631 383.516 163.402 385.179 164.136C383.516 163.402 381.868 162.638 380.22 161.83Z" fill="#013341"/>
<path d="M325.955 175.678C328.583 174.951 335.427 172.69 341.062 166.071C346.139 160.103 347.498 153.802 347.921 151.074C348.285 151.526 348.96 152.371 349.324 152.824C349.369 152.883 349.74 153.343 349.784 153.402C349.658 155.129 349.309 157.568 348.322 160.333C347.142 163.646 345.612 165.87 344.573 167.346C343.356 169.088 341.21 172.097 337.432 174.87C333.327 177.879 329.221 179.191 326.453 179.807C326.282 178.428 326.118 177.056 325.948 175.685L325.955 175.678Z" fill="url(#paint0_linear_590_2163)"/>
<path d="M343.771 297.81C346.704 297.936 349.487 298.484 351.789 300.486L351.774 300.501C348.597 300.53 345.427 300.552 342.25 300.582C340.913 300.389 338.916 299.908 339.28 298.67C339.956 296.357 342.465 299.448 343.764 297.81H343.771Z" fill="#FFAC84"/>
<path d="M342.257 300.582C345.434 300.552 348.604 300.53 351.781 300.5C348.552 301.479 346.184 304.496 342.495 304.377C342.413 303.109 342.339 301.849 342.257 300.589V300.582Z" fill="#FF8C81"/>
<path d="M342.554 308.574C343.957 308.737 346.436 307.981 346.54 309.248C346.733 311.583 344.269 310.998 342.688 311.161C342.643 310.301 342.598 309.433 342.547 308.574H342.554Z" fill="#FF8C81"/>
<path d="M314.159 236.172C314.597 236.639 315.035 237.106 315.481 237.573C315.043 237.106 314.605 236.639 314.159 236.172Z" fill="#FECCB9"/>
<path d="M460.653 288.373C460.98 282.769 459.124 277.728 456.199 273.258C449.05 262.309 432.793 246.364 415.2 222.65C405.497 209.574 397.316 195.104 384.14 194.837C384.029 194.837 383.932 194.837 383.873 194.837C383.873 194.837 380.087 194.792 379.515 194.778C378.498 194.748 376.984 194.718 374.89 194.711C372.404 198.951 369.056 205.771 367.437 214.681C365.448 225.652 365.351 240.567 369.271 241.583C370.162 241.812 370.711 241.182 371.78 240.804C378.661 238.388 389.715 252.732 392.974 257.024C399.328 265.408 407.464 276.794 416.35 291.138C418.785 290.901 420.663 291.835 422.081 293.784C423.328 295.497 423.996 298.18 426.899 297.513C430.143 296.764 429.519 293.903 429.764 291.546C429.846 290.752 430.195 289.989 431.115 288.514C430.588 298.744 439.162 295.082 443.55 297.602C447.076 299.626 451.277 300.5 455.175 301.887C458.53 300.159 461.819 298.373 461.982 293.933C460.022 292.45 460.542 290.278 460.653 288.38V288.373ZM370.251 236.357C370.206 236.468 369.991 236.52 369.85 236.594C369.761 236.46 369.664 236.32 369.575 236.186C369.783 236.075 369.991 235.964 370.199 235.86C370.221 236.03 370.31 236.223 370.251 236.364V236.357Z" fill="#FECCB9"/>
<path d="M353.14 325.98L353.422 325.535C353.318 325.676 353.214 325.809 353.11 325.95L353.14 325.987V325.98Z" fill="#FE6949"/>
<path d="M339.822 132.68C338.07 127.127 336.311 121.575 334.507 115.845C321.442 125.66 311.138 121.316 306.261 109.996C298.904 114.896 298.31 123.695 294.101 130.263C294.116 137.587 293.611 144.955 294.287 152.22C295.103 160.908 298.399 168.521 307.449 172.027C308.881 172.576 310.477 173.117 312.222 173.591C314.323 174.162 316.282 174.548 318.049 174.807C319.281 174.978 321.078 175.111 323.29 174.852C323.29 174.852 323.55 174.822 323.758 174.792C327.128 174.31 330.624 171.827 331.619 171.108C334.789 168.817 336.37 167.668 337.766 165.926C343.289 159.018 342.398 149.359 341.938 144.414C341.841 143.376 341.685 142.161 341.685 142.161C341.173 138.121 340.409 134.874 339.815 132.68H339.822Z" fill="#FEC3AF"/>
<path d="M205.48 220.37C205.48 217.227 205.488 214.077 205.495 210.934L205.48 220.37Z" fill="#013341"/>
<path d="M202.979 194.543C200.536 193.868 201.034 192.823 202.6 191.637L202.979 194.543Z" fill="#095B62"/>
<path d="M369.85 236.601C369.761 236.468 369.664 236.327 369.575 236.193C369.783 236.082 369.991 235.971 370.199 235.867C370.221 236.038 370.31 236.23 370.251 236.371C370.206 236.482 369.991 236.534 369.85 236.608V236.601Z" fill="#FECCB9"/>
<path d="M325.955 175.676C325.339 175.676 324.701 175.668 324.055 175.638C321.085 175.512 318.383 175.06 316.015 174.467C318.079 174.808 321.174 174.979 324.537 173.837C326.23 173.266 327.41 172.547 327.826 172.295C328.724 171.754 330.973 170.264 333.23 166.691C338.256 158.722 339.473 146.476 339.629 144.712C339.971 140.724 339.778 136.691 339.83 132.681C340.542 134.401 341.299 135.757 341.908 136.736C343.705 139.641 344.84 140.294 345.501 140.575C346.414 140.961 347.142 140.924 347.312 140.909C350.4 140.709 350.074 138.092 350.861 136.135C351.945 133.429 353.31 130.768 357.089 131.828C358.485 132.221 359.375 132.999 359.791 133.392C362.642 136.061 362.597 140.657 362.59 141.532C362.575 142.955 362.486 146.691 359.657 149.982C356.206 154.008 351.351 154.26 350.512 154.289C349.747 153.333 348.975 152.377 347.921 151.057C347.498 153.785 346.139 160.094 341.062 166.054C335.435 172.673 328.583 174.934 325.955 175.661V175.676Z" fill="#FF8C81"/>
<path d="M293.982 286.849C302.965 284.558 312.162 285.285 321.063 286.389C327.017 287.13 333.267 285.64 339.109 288.687C326.393 288.502 315.429 297.434 302.401 295.07C300.433 291.474 296.967 289.414 293.99 286.841L293.982 286.849Z" fill="#FE6949"/>
<path d="M366.079 346.558C365.537 344.616 365.002 342.652 364.475 340.672C362.033 331.451 359.977 322.437 358.247 313.652C360.667 314.075 363.31 314.683 366.101 315.557C367.356 315.95 368.551 316.365 369.687 316.803C371.869 322.281 373.948 328.263 375.789 334.735C376.501 337.24 377.14 339.694 377.711 342.088C377.541 341.755 377.251 341.302 376.754 340.954C375.299 339.924 373.331 340.873 372.21 340.984C370.607 341.132 368.439 342.244 366.079 346.558Z" fill="#FF8C81"/>
<path d="M263.465 605.155C266.62 607.379 271.809 610.456 278.846 612.242C287.279 614.385 294.42 613.68 298.481 612.961C294.918 620.641 291.369 628.602 287.866 636.838C284.161 645.541 280.724 654.066 277.525 662.383C269.493 660.078 262.121 656.156 254.312 652.754C255.744 645.459 257.17 638.135 258.588 630.789C260.243 622.213 261.869 613.665 263.472 605.141L263.465 605.155Z" fill="#FE6949"/>
<path d="M300.79 144.43C303.098 144.43 304.969 142.014 304.969 139.033C304.969 136.053 303.098 133.637 300.79 133.637C298.482 133.637 296.61 136.053 296.61 139.033C296.61 142.014 298.482 144.43 300.79 144.43Z" fill="#013341"/>
<path d="M324.923 144.356C327.232 144.356 329.103 141.94 329.103 138.959C329.103 135.979 327.232 133.562 324.923 133.562C322.615 133.562 320.744 135.979 320.744 138.959C320.744 141.94 322.615 144.356 324.923 144.356Z" fill="#013341"/>
<path d="M312.637 145.266C312.474 146.222 312.11 147.601 311.19 148.957C309.809 150.981 308.146 151.53 308.221 152.612C308.258 153.183 308.777 153.968 311.093 154.813" stroke="#013341" stroke-width="3" stroke-miterlimit="10" stroke-linecap="round"/>
<path d="M354.721 148.92C355.686 149.216 360.623 141.358 358.158 138.141C357.319 137.044 355.597 136.451 354.825 136.992C354.008 137.556 354.587 139.12 354.788 142.463C355.055 146.97 354.268 148.779 354.721 148.92Z" fill="#912C20"/>
<path d="M348.396 150.641C348.641 150.641 350.415 153.117 349.554 153.999C349.383 154.177 349.072 154.317 348.79 154.243C348.144 154.065 347.787 152.82 347.914 151.071C347.914 151.004 347.936 150.826 348.077 150.722C348.077 150.722 348.218 150.641 348.396 150.641Z" fill="url(#paint1_linear_590_2163)"/>
<path d="M330.29 132.599C330.595 132.162 328.449 128.952 325.391 128.745C321.969 128.515 319.274 132.177 319.549 132.599C319.771 132.933 321.761 131.065 324.997 131.109C328.145 131.154 330.031 132.97 330.29 132.599Z" fill="#013341"/>
<path d="M305.37 132.59C305.659 132.16 303.729 129.351 301.027 129.173C297.991 128.973 295.593 132.183 295.853 132.59C296.046 132.894 297.627 131.486 300.359 131.434C303.328 131.375 305.125 132.968 305.377 132.59H305.37Z" fill="#013341"/>
<path d="M197.612 165.443L196.943 169.401C196.795 170.291 196.038 170.965 195.132 170.965C194.108 170.965 192.727 171.173 191.361 172.048C189.854 173.019 189.082 174.353 188.681 175.384C188.355 176.229 187.501 176.74 186.61 176.584L184.272 176.192C183.247 176.021 182.557 175.05 182.728 174.027C183.329 170.454 183.93 166.881 184.539 163.308C184.71 162.292 185.667 161.603 186.692 161.766C189.81 162.263 192.935 162.767 196.053 163.263C197.084 163.427 197.782 164.398 197.612 165.428V165.443Z" fill="#FAEEE4"/>
<path d="M202.9 184.075L201.121 183.981C198.472 183.84 196.21 185.871 196.07 188.516L194.388 220.139C194.247 222.784 196.281 225.043 198.929 225.183L200.709 225.277C203.357 225.418 205.619 223.387 205.759 220.742L207.441 189.119C207.582 186.474 205.549 184.216 202.9 184.075Z" fill="#014D56"/>
<path d="M186.646 187.172L188.537 175.959L199.429 177.791C204.663 178.671 208.194 183.625 207.313 188.852L207.017 190.606L186.644 187.18L186.646 187.172Z" fill="#014D56"/>
<path d="M203.518 189.934L204.927 190.008C208.352 190.19 210.977 193.113 210.795 196.525L209.88 213.736C209.698 217.156 206.771 219.777 203.353 219.596L201.945 219.521C201.174 219.48 200.577 218.818 200.618 218.048L202.043 191.258C202.084 190.489 202.747 189.893 203.518 189.934Z" fill="#013341"/>
<path d="M185.519 193.911C184.992 197.032 184.465 200.16 183.938 203.281C174.324 202.095 164.711 200.909 155.09 199.723C155.046 198.715 154.949 197.632 154.801 196.491C154.563 194.712 154.222 193.103 153.843 191.68C156.315 193.34 162.551 197.054 171.266 197.15C177.843 197.225 182.883 195.201 185.511 193.918L185.519 193.911Z" fill="#FE6949"/>
<path d="M195.451 200.336C193.261 200.64 191.621 202.493 191.576 204.643C191.539 206.696 192.965 208.542 195.013 209.039" fill="#FECCB9"/>
<path d="M195.874 190.188C193.685 190.491 192.044 192.345 191.999 194.494C191.962 196.548 193.388 198.394 195.436 198.89" fill="#FECCB9"/>
<path d="M194.783 211.137C192.593 211.441 190.953 213.294 190.908 215.444C190.871 217.497 192.296 219.343 194.345 219.839" fill="#FECCB9"/>
<path d="M201.035 204.07L200.075 205.029C198.645 206.456 198.645 208.77 200.075 210.197L210.919 221.027C212.349 222.454 214.666 222.454 216.095 221.027L217.056 220.068C218.485 218.64 218.485 216.326 217.056 214.899L206.211 204.07C204.782 202.643 202.464 202.643 201.035 204.07Z" fill="#FEC3AF"/>
<path d="M173.42 173.168L126.957 166.515C118.792 165.346 111.223 171.008 110.053 179.162L94.866 284.923C93.6952 293.076 99.3654 300.634 107.531 301.803L153.994 308.456C162.159 309.625 169.728 303.963 170.899 295.809L186.085 190.049C187.256 181.895 181.586 174.337 173.42 173.168Z" fill="#FF8C81"/>
<path d="M170.041 177.344C179.714 178.73 186.469 187.418 185.133 196.751L171.214 293.667C169.87 303 160.947 309.449 151.267 308.063" fill="#FE6949"/>
<path d="M191.374 153.258L115.341 142.371L109.537 182.795L185.569 193.682L191.374 153.258Z" fill="#FAEEE4"/>
<path d="M107.313 152.28L106.741 156.253C106.615 157.142 107.127 158.025 107.989 158.291C108.961 158.603 110.223 159.218 111.247 160.471C112.383 161.85 112.717 163.362 112.777 164.466C112.829 165.371 113.489 166.112 114.388 166.246L116.733 166.579C117.758 166.727 118.715 166.016 118.864 164.985C119.376 161.397 119.896 157.817 120.408 154.229C120.556 153.206 119.851 152.265 118.827 152.109C115.701 151.635 112.576 151.168 109.451 150.693C108.419 150.538 107.454 151.249 107.313 152.28Z" fill="#FAEEE4"/>
<path d="M197.188 165.139L196.617 169.112C196.491 170.002 195.748 170.699 194.85 170.721C193.826 170.743 192.445 170.98 191.109 171.892C189.631 172.9 188.889 174.257 188.51 175.295C188.206 176.147 187.36 176.674 186.469 176.547L184.123 176.214C183.099 176.066 182.379 175.117 182.527 174.086C183.039 170.499 183.559 166.918 184.071 163.33C184.22 162.307 185.162 161.596 186.187 161.737C189.32 162.159 192.452 162.582 195.578 163.004C196.609 163.145 197.337 164.101 197.188 165.132V165.139Z" fill="#ECD9CA"/>
<path d="M156.449 189.516C158.386 219.323 153.999 229.575 148.194 231.843C142.01 234.267 136.108 226.884 129.531 230.175C121.937 233.971 118.604 249.412 124.81 259.568C127.802 264.467 133.25 268.53 139.256 269.656C146.568 271.028 149.73 267.114 152.856 269.39C157.956 273.096 154.919 287.477 149.278 297.151C146.687 301.599 143.732 304.734 141.631 306.691C144.846 307.151 148.06 307.611 151.267 308.07C162.699 269.946 174.131 231.821 185.571 193.689C175.861 192.295 166.158 190.909 156.449 189.516Z" fill="#FE6949"/>
<path d="M108.055 193.074C106.741 202.237 105.42 211.406 104.106 220.569C106.934 219.894 112.732 218.056 117.268 212.763C118.456 211.377 125.003 203.742 122.286 196.722C122.034 196.077 120.401 191.859 116.11 190.828C111.841 189.805 108.412 192.748 108.055 193.067V193.074Z" fill="#FE6949"/>
<path d="M137.363 292.509C127.995 299.885 114.41 298.276 107.024 288.914C99.6372 279.559 101.248 265.993 110.624 258.617" fill="#FFAC84"/>
<path d="M110.624 258.625C101.315 265.949 99.6892 279.626 107.023 288.922C114.358 298.217 128.054 299.841 137.363 292.517" stroke="#FE6949" stroke-width="5" stroke-linecap="round" stroke-linejoin="round"/>
<path d="M111.552 260.508C103.126 267.135 101.656 279.507 108.293 287.921C114.929 296.334 127.319 297.802 135.745 291.175" stroke="#FECCB9" stroke-width="3" stroke-miterlimit="10" stroke-linecap="round"/>
<path d="M121.544 272.516C119.68 274.065 119.547 276.808 121.061 278.409C122.405 279.832 124.78 280.062 126.51 278.809" fill="#FECCB9"/>
<path d="M123.288 281.48L123.392 291.361C123.4 292.147 124.179 292.696 124.921 292.444L130.741 290.472C131.484 290.22 131.766 289.315 131.298 288.685L125.367 280.776C124.699 279.879 123.273 280.361 123.281 281.48H123.288Z" fill="#FECCB9"/>
<path d="M119.933 279.825L113.014 286.89C112.465 287.453 112.621 288.387 113.326 288.736L118.834 291.456C119.539 291.804 120.378 291.36 120.49 290.581L121.9 280.804C122.056 279.699 120.712 279.032 119.925 279.833L119.933 279.825Z" fill="#FECCB9"/>
<path d="M118.24 275.941L108.345 276.045C107.558 276.052 107.009 276.831 107.261 277.572L109.236 283.384C109.488 284.125 110.394 284.407 111.025 283.94L118.945 278.017C119.844 277.349 119.361 275.926 118.24 275.934V275.941Z" fill="#FECCB9"/>
<path d="M119.228 272.532L112.91 264.926C112.406 264.319 111.463 264.385 111.04 265.045L107.758 270.234C107.335 270.901 107.692 271.776 108.456 271.969L118.055 274.385C119.139 274.66 119.94 273.385 119.228 272.525V272.532Z" fill="#FECCB9"/>
<path d="M168.697 230.418C174.963 238.365 173.589 249.877 165.631 256.126C157.674 262.382 146.145 261.011 139.887 253.064" fill="#FFAC84"/>
<path d="M139.88 253.064C146.1 260.959 157.725 262.338 165.624 256.126C173.53 249.914 174.911 238.305 168.69 230.418" stroke="#F25A41" stroke-width="5" stroke-linecap="round" stroke-linejoin="round"/>
<path d="M141.483 252.278C147.11 259.417 157.629 260.67 164.778 255.051C171.926 249.432 173.181 238.928 167.554 231.789" stroke="#FECCB9" stroke-width="3" stroke-miterlimit="10" stroke-linecap="round"/>
<path d="M151.69 243.812C153.004 245.391 155.335 245.51 156.701 244.228C157.911 243.086 158.112 241.077 157.043 239.609" fill="#FECCB9"/>
<path d="M159.849 242.331L167.472 242.257C168.259 242.25 168.809 241.479 168.556 240.73L167.042 236.253C166.789 235.512 165.884 235.23 165.253 235.697L159.151 240.256C158.253 240.923 158.735 242.346 159.856 242.339L159.849 242.331Z" fill="#FECCB9"/>
<path d="M158.29 245.556L163.731 250.886C164.295 251.435 165.231 251.279 165.58 250.575L167.68 246.334C168.029 245.63 167.584 244.793 166.812 244.681L159.27 243.592C158.163 243.429 157.495 244.778 158.297 245.563L158.29 245.556Z" fill="#FECCB9"/>
<path d="M154.608 247.148L154.682 254.761C154.689 255.547 155.461 256.096 156.211 255.844L160.695 254.332C161.437 254.079 161.719 253.175 161.252 252.545L156.686 246.452C156.018 245.555 154.593 246.036 154.6 247.156L154.608 247.148Z" fill="#FECCB9"/>
<path d="M151.289 246.125L145.417 250.981C144.809 251.485 144.868 252.426 145.536 252.849L149.537 255.377C150.206 255.799 151.082 255.443 151.275 254.68L153.145 247.304C153.42 246.222 152.151 245.414 151.282 246.133L151.289 246.125Z" fill="#FECCB9"/>
<path d="M116.8 194.594C111.181 203.007 113.46 214.379 121.885 219.983C130.311 225.594 141.698 223.319 147.31 214.905" fill="#FFAC84"/>
<path d="M147.318 214.905C141.735 223.259 130.259 225.557 121.893 219.983C113.526 214.408 111.225 202.948 116.808 194.594" stroke="#F25A41" stroke-width="5" stroke-linecap="round" stroke-linejoin="round"/>
<path d="M145.655 214.244C140.607 221.805 130.222 223.881 122.65 218.84C115.078 213.799 112.999 203.428 118.047 195.867" stroke="#FECCB9" stroke-width="3" stroke-miterlimit="10" stroke-linecap="round"/>
<path d="M134.809 206.609C133.622 208.284 131.306 208.588 129.843 207.417C128.544 206.379 128.188 204.385 129.138 202.836" fill="#FECCB9"/>
<path d="M126.562 205.777L118.96 206.295C118.173 206.347 117.565 205.621 117.758 204.857L118.916 200.276C119.109 199.513 119.992 199.164 120.653 199.579L127.096 203.642C128.047 204.235 127.675 205.695 126.555 205.769L126.562 205.777Z" fill="#FECCB9"/>
<path d="M128.373 208.87L123.362 214.607C122.843 215.2 121.9 215.119 121.499 214.437L119.072 210.375C118.671 209.7 119.042 208.825 119.814 208.655L127.252 206.98C128.344 206.735 129.116 208.025 128.381 208.87H128.373Z" fill="#FECCB9"/>
<path d="M132.167 210.166L132.686 217.756C132.738 218.542 132.011 219.15 131.246 218.957L126.658 217.801C125.894 217.608 125.545 216.726 125.961 216.066L130.029 209.632C130.623 208.683 132.085 209.054 132.159 210.173L132.167 210.166Z" fill="#FECCB9"/>
<path d="M135.388 208.876L141.624 213.25C142.27 213.702 142.285 214.651 141.654 215.118L137.86 217.95C137.229 218.424 136.324 218.142 136.071 217.394L133.629 210.181C133.273 209.121 134.475 208.224 135.388 208.861V208.876Z" fill="#FECCB9"/>
<path d="M196.96 160.674L108.391 147.992C107.231 147.826 106.155 148.631 105.988 149.79L105.878 150.56C105.711 151.72 106.517 152.794 107.678 152.96L196.247 165.642C197.407 165.808 198.483 165.003 198.65 163.844L198.76 163.074C198.927 161.915 198.121 160.84 196.96 160.674Z" fill="#FEC3AF"/>
<path d="M190.671 169.746L111.069 158.345C109.696 158.145 108.738 156.877 108.939 155.506C109.139 154.134 110.409 153.178 111.782 153.378L191.383 164.779C192.757 164.979 193.714 166.247 193.514 167.618C193.313 168.99 192.044 169.946 190.671 169.746Z" fill="#ECD9CA"/>
<path d="M202.932 183.641L201.151 183.59C198.5 183.515 196.289 185.6 196.213 188.247L195.305 219.902C195.229 222.55 197.317 224.758 199.969 224.834L201.75 224.885C204.401 224.96 206.612 222.875 206.688 220.228L207.596 188.573C207.672 185.925 205.584 183.717 202.932 183.641Z" fill="#014D56"/>
<path d="M186.757 187.129L188.373 175.873L199.307 177.439C204.561 178.191 208.212 183.057 207.459 188.304L207.206 190.065L186.755 187.137L186.757 187.129Z" fill="#014D56"/>
<path d="M203.689 189.482L205.099 189.522C208.527 189.62 211.223 192.478 211.125 195.894L210.631 213.122C210.533 216.545 207.67 219.237 204.25 219.139L202.84 219.099C202.068 219.077 201.455 218.429 201.477 217.658L202.246 190.842C202.268 190.071 202.917 189.459 203.689 189.482Z" fill="#013341"/>
<path d="M110.98 172.472C113.17 172.309 116.266 172.45 118.931 174.281C121.455 176.008 121.588 177.884 123.043 179.567C127.468 184.674 136.183 178.87 148.417 181.19C157.688 182.947 157.948 187.091 166.819 188.41C174.978 189.626 182.119 187.143 186.833 184.896C186.38 188.032 185.934 191.168 185.482 194.303C160.138 190.671 134.795 187.046 109.451 183.414C109.963 179.767 110.468 176.127 110.98 172.48V172.472Z" fill="#FF8C81"/>
<path d="M186.84 184.89C186.387 188.026 185.942 191.161 185.489 194.297C175.846 193.348 166.21 192.399 156.567 191.443C156.493 190.435 156.374 189.353 156.196 188.218C155.914 186.447 155.536 184.846 155.12 183.43C157.629 185.031 163.961 188.589 172.669 188.47C179.246 188.381 184.235 186.239 186.833 184.89H186.84Z" fill="#FE6949"/>
<path d="M100.706 146.838L101.389 142.302C101.545 141.286 102.399 140.493 103.438 140.478C104.611 140.463 106.207 140.204 107.758 139.174C109.466 138.039 110.334 136.497 110.772 135.311C111.129 134.34 112.109 133.74 113.133 133.896L115.828 134.303C117.008 134.481 117.825 135.578 117.646 136.75C117.03 140.841 116.407 144.933 115.791 149.025C115.612 150.189 114.521 150.997 113.348 150.827C109.748 150.315 106.148 149.796 102.54 149.285C101.352 149.114 100.528 148.017 100.706 146.838Z" fill="#FAEEE4"/>
<path d="M204.092 162.451L204.775 157.914C204.931 156.899 204.345 155.891 203.357 155.572C202.236 155.209 200.796 154.49 199.616 153.052C198.317 151.465 197.946 149.731 197.879 148.47C197.827 147.44 197.07 146.58 196.038 146.424L193.343 146.017C192.163 145.839 191.057 146.647 190.878 147.818C190.262 151.91 189.639 156.002 189.023 160.094C188.844 161.258 189.654 162.347 190.827 162.533C194.419 163.103 198.012 163.674 201.605 164.245C202.793 164.43 203.907 163.63 204.085 162.451H204.092Z" fill="#FAEEE4"/>
<path d="M135.611 80.3615L129.544 80.9374C128.111 81.0734 127.06 82.3433 127.196 83.7738L131.972 133.941C132.108 135.371 133.38 136.421 134.812 136.285L140.88 135.709C142.312 135.573 143.363 134.303 143.227 132.872L138.452 82.7055C138.315 81.2749 137.044 80.2255 135.611 80.3615Z" fill="#FE6949"/>
<path d="M195.459 137.388L116.095 125.616C113.853 125.282 111.819 126.439 111.544 128.21L108.597 147.158C108.323 148.929 109.926 150.642 112.175 150.975L191.539 162.747C193.781 163.081 195.815 161.924 196.09 160.153L199.037 141.205C199.312 139.434 197.708 137.721 195.459 137.388Z" fill="#FAEEE4"/>
<path d="M155.12 183.427C154.623 180.098 153.717 176.014 152.024 171.536C150.673 167.971 149.129 164.954 147.659 162.5C161.43 164.435 175.208 166.377 188.978 168.312C188.265 173.834 187.553 179.364 186.833 184.887C184.45 186.132 181.228 187.43 177.286 188.045C166.634 189.72 158.149 185.235 155.112 183.427H155.12Z" fill="#ECD9CA"/>
<path d="M203.855 183.962C203.209 184.896 203.58 186.326 204.063 187.186C204.783 188.461 205.896 188.713 208.034 189.944C208.962 190.478 210.261 191.308 211.738 192.524C214.574 193.035 216.979 192.079 217.521 190.589C218.189 188.736 215.806 186.578 214.908 185.763C212.503 183.584 209.749 183.302 208.398 183.161C206.705 182.983 204.664 182.776 203.847 183.962H203.855Z" fill="#FEC3AF"/>
<path d="M374.386 193.836C374.386 193.836 372.99 193.421 371.305 193.999C368.246 195.044 365.611 203.45 365.611 203.45C365.611 203.45 365.136 204.977 359.828 216.868C357.371 222.368 352.702 232.842 342.42 238.246C335.472 241.901 329.147 241.634 327.811 241.552C324.886 241.367 318.643 240.982 314.159 236.171C311.643 233.465 310.73 230.5 310.425 229.329C308.688 222.575 311.851 215.785 314.738 209.603C314.813 209.447 315.414 208.157 316.401 206.052C316.906 204.977 317.53 203.643 318.279 202.019C318.962 200.544 319.526 199.336 319.883 198.558C318.903 198.439 317.923 198.328 316.936 198.209C316.698 198.172 316.364 198.143 315.978 198.239C314.449 198.617 313.744 200.567 313.38 201.508C312.489 203.813 310.893 205.815 310.084 208.15C307.998 214.147 300.352 228.676 292.795 239.425C286.529 248.343 285.201 247.713 283.285 252.768C282.461 254.933 278.66 264.94 283.612 275.385C286.663 281.812 291.577 285.348 293.982 286.845C302.965 284.555 312.162 285.281 321.063 286.386C327.017 287.127 333.267 285.637 339.109 288.684C326.393 288.498 315.429 297.431 302.401 295.066C301.48 303.554 306.387 310.433 308.733 318.024C316.223 318.224 324.018 318.239 332.087 318.017C337.491 317.868 339.406 317.661 342.539 317.594C349.287 317.461 358.96 317.928 371.082 320.789C370.31 314.747 369.33 308.395 368.083 301.775C366.814 295.014 365.388 288.617 363.874 282.598C361.335 288.439 358.937 289.899 357.148 290.062C355.01 290.255 353.348 288.632 348.804 288.684C347.461 288.699 346.473 288.847 346.006 288.921C345.724 288.965 345.456 289.025 345.189 289.077C345.234 288.899 345.278 288.721 345.323 288.543C344.269 287.935 341.485 289.899 342.569 286.134C345.761 275.007 346.429 263.428 347.943 252.005C347.966 249.292 344.61 245.911 349.502 244.162C355.137 239.01 362.159 242.954 368.335 241.3C366.353 233.406 365.915 225.585 367.385 217.861C368.373 212.694 369.961 208.988 369.961 208.988C370.897 206.586 371.646 205.229 372.856 201.79C373.109 201.063 373.45 200.077 374.029 198.721C374.779 196.979 375.514 195.6 376.026 194.696C375.484 194.399 374.942 194.11 374.4 193.813L374.386 193.836ZM315.199 264.999C316.921 265.192 318.695 265.407 320.566 265.637C318.695 265.407 316.921 265.185 315.199 264.999Z" fill="#FFA22B"/>
<path d="M384.793 247.611C384.845 253.519 384.63 259.797 384.036 266.395C382.106 287.981 376.776 306.343 371.067 320.798C368.781 308.485 366.494 296.173 364.208 283.86C366.108 279.064 368.165 272.473 369.085 264.445C370.154 255.075 369.286 247.166 368.239 241.628C368.15 241.072 368.068 240.516 367.979 239.96C368.009 240.042 368.053 240.168 368.12 240.316C368.187 240.465 368.736 241.643 369.33 241.577C369.367 241.577 369.39 241.569 369.427 241.554C369.835 241.428 369.961 241.087 370.488 240.353C370.562 240.25 370.644 240.153 370.718 240.049C371.364 239.19 373.079 238.811 373.302 238.774C374.772 238.53 379.493 241.829 384.786 247.618L384.793 247.611Z" fill="#B82B2C"/>
<path d="M330.498 341.664C329.088 343.902 328.242 345.452 328.873 346.475C329.474 347.453 331.315 347.742 332.614 347.194C334.403 346.445 335.041 344.169 335.323 344.295C335.591 344.406 334.529 346.371 335.264 347.253C335.806 347.905 337.142 347.764 337.87 347.49C341.025 346.319 340.988 339.618 340.98 339.128C343.014 338.35 345.048 337.579 347.082 336.801C343.771 335.303 340.46 333.806 337.15 332.309C334.158 336.067 331.983 339.299 330.498 341.664Z" fill="#FA826E"/>
<path d="M351.069 336.551C351.18 336.588 351.544 336.714 351.625 336.996C351.692 337.218 351.544 337.448 351.492 337.522C350.913 338.419 346.882 340.428 344.254 342.533C344.187 342.585 342.628 343.86 342.947 345.491C343.044 345.995 343.296 346.373 343.504 346.632C343.942 346.773 344.595 346.959 345.412 347.033C347.631 347.233 349.235 346.484 350.883 345.854C353.867 344.72 353.756 344.95 354.082 344.883C355.396 344.609 356.272 344.572 357.475 343.964C358.076 343.66 358.514 343.348 358.871 343.052C360.296 341.881 360.741 340.569 363.288 338.612" fill="#FA826E"/>
<path d="M368.046 337.031C371.409 334.696 373.814 330.967 373.806 330.96C373.806 330.96 373.695 331.078 373.45 331.345C374.23 329.129 375.002 326.912 375.781 324.696C372.151 322.783 369.107 322.05 366.962 321.731C364.26 321.331 358.403 320.923 356.577 320.649C356.168 320.589 355.04 320.404 353.585 320.611C352.108 320.819 351.069 321.323 350.571 321.553C348.656 322.45 345.932 323.591 342.279 325.059C339.688 325.741 337.959 326.193 336.86 326.475C335.279 326.883 334.314 327.127 333.148 327.795C331.879 328.521 331.07 329.336 330.654 329.774C323.231 337.454 319.534 341.323 320.365 342.709C320.781 343.391 321.85 343.443 322.756 343.517C325.591 343.732 327.692 341.872 328.279 341.316C331.998 338.44 334.767 336.364 335.687 335.682C335.903 335.526 336.37 335.185 337.038 335.104C337.788 335.007 338.389 335.274 338.619 335.371C342.509 337.038 347.839 339.144 348.047 339.225C350.757 340.27 353.006 340.204 356.065 340.122C359.123 340.041 363.867 339.915 368.039 337.024L368.046 337.031Z" fill="#FECCB9"/>
<path d="M348.27 291.176C346.436 292.799 347.283 298.878 359.249 318.596C363.191 319.33 367.125 320.064 371.067 320.798C368.781 308.485 366.494 296.172 364.208 283.859C363.072 285.735 361.075 288.396 357.779 289.827C353.192 291.813 349.829 289.797 348.263 291.183L348.27 291.176Z" fill="#D44A28"/>
<path d="M367.229 237.633C368.996 240.361 375.573 251.213 373.45 265.817C371.572 278.708 364.052 286.699 361.513 289.175C359.799 289.642 345.924 293.2 337.899 285.565C328.256 276.387 333.111 256.847 343.422 246.766C352.204 238.189 363.718 237.662 367.229 237.633Z" fill="#FFA22B"/>
<path d="M360.919 321.574C383.568 320.047 396.017 312.479 403.263 305.548C409.298 299.773 411.005 295.963 416.87 289.447C422.846 282.805 433.765 275.066 455.412 272.59C457.966 275.57 464.083 283.524 462.969 293.22C462.657 295.963 461.165 304.058 447.603 313.85C421.457 332.723 378.261 337.838 363.206 339.261C361.662 335.399 359.323 331.33 355.938 330.892C353.132 330.529 350.742 332.797 350.43 332.405C350.141 332.041 351.952 329.773 360.927 321.574H360.919Z" fill="#FECCB9"/>
<path d="M413.529 293.864C415.11 291.485 417.389 288.586 420.611 285.784C426.305 280.84 432.184 278.571 435.859 277.504" stroke="#FA826E" stroke-width="3" stroke-miterlimit="10" stroke-linecap="round"/>
<path d="M302.824 418.431C304.063 416.029 305.89 413.108 308.562 410.188C313.595 404.68 319.155 401.841 322.644 400.41" stroke="#095B62" stroke-width="3" stroke-miterlimit="10" stroke-linecap="round"/>
<path d="M459.272 277.964C457.275 285.652 452.873 298.231 442.607 310.448C436.943 317.186 431.034 321.982 426.171 325.311C434.085 322.657 446.927 317.119 456.437 305.978C461.232 300.359 462.531 296.4 462.969 293.213C463.957 285.941 460.668 280.144 459.272 277.957V277.964Z" fill="#FA826E"/>
<path d="M349.896 290.65C351.922 290.716 355.226 290.546 358.915 289.085C361.387 288.107 363.273 286.854 364.579 285.816C364.438 287.929 364.297 290.042 364.149 292.162C359.279 292.71 354.409 293.266 349.539 293.815C349.658 292.762 349.769 291.71 349.888 290.657L349.896 290.65Z" fill="#D44A28"/>
<path d="M295.237 613.42C299.327 604.554 304.724 589.98 305.86 571.24C306.869 554.635 304.145 541.018 301.629 532.107C307.909 525.903 314.441 518.772 320.907 510.617C335.22 492.567 344.989 474.85 351.707 459.898C352.197 460.121 352.724 460.336 353.273 460.543C354.632 461.047 355.916 461.381 357.074 461.603C349.666 477.497 338.872 496.207 322.993 514.947C317.136 521.863 311.242 528.008 305.504 533.457C309.512 550.343 312.385 575.443 303.024 602.011C301.658 605.895 300.122 609.55 298.474 612.967C297.39 613.116 296.313 613.271 295.23 613.42H295.237Z" fill="#FAA17C"/>
<path d="M369.434 241.546C369.486 240.323 370.021 239.693 370.214 239.493C371.342 238.322 373.68 238.263 375.759 239.664" fill="#B82B2C"/>
<path d="M370.436 462.266C371.565 472.473 373.576 484.304 377.117 497.217C381.104 511.762 386.07 524.193 390.866 534.326C389.373 532.762 387.317 530.553 384.905 527.87C379.99 522.406 375.484 517.01 369.39 509.241C360.971 498.507 353.444 488.24 347.55 479.96C348.366 478.544 349.183 477.091 350 475.601C351.276 473.274 352.479 470.983 353.607 468.737C356.05 467.558 358.722 466.38 361.625 465.26C364.72 464.06 367.675 463.074 370.436 462.266Z" fill="#FC9687"/>
<path d="M743.604 662.391H1.3956C0.624833 662.391 0 663.013 0 663.781C0 664.548 0.624833 665.17 1.3956 665.17H743.604C744.375 665.17 745 664.548 745 663.781C745 663.013 744.375 662.391 743.604 662.391Z" fill="#0E3744"/>
<path d="M73.7369 662.391C74.353 662.457 75.2513 662.457 76.1495 662.035C78.4804 660.952 78.0944 658.365 80.3957 656.557C81.821 655.437 84.2559 654.637 85.8519 655.497C87.5741 656.423 89.0588 659.692 89.1702 659.952C89.3558 660.359 89.6675 661.13 90.4247 661.501C91.1819 661.872 91.9911 661.664 92.2212 661.605C94.5596 660.997 94.4482 657.802 96.8386 656.075C98.8355 654.637 101.909 654.689 103.943 655.675C106.534 656.935 106.341 659.188 109.221 660.982C111.01 662.094 112.888 662.354 114.232 662.383C114.232 662.828 114.232 663.28 114.232 663.725C101.011 663.851 87.7894 663.984 74.5757 664.11C74.2936 663.532 74.019 662.954 73.7369 662.383V662.391Z" fill="#0E3744"/>
<path d="M571.329 663.664C600.644 663.538 629.952 663.412 659.267 663.286C658.977 660.847 656.928 645.725 643.321 636.704C635.341 631.403 627.22 630.759 623.516 630.699C618.007 630.773 607.333 631.656 595.99 637.808C580.675 646.111 573.675 658.839 571.329 663.672V663.664Z" fill="#0E3744"/>
<path d="M258.023 633.665C257.556 634.984 256.776 637.831 257.979 640.648C259.716 644.725 264.452 645.918 267.622 646.711C275.09 648.587 281.734 646.452 285.238 644.969C285.802 649.966 285.832 656.734 283.597 664.183C283.033 666.059 282.387 667.779 281.704 669.365C281.496 669.84 281.296 670.307 281.088 670.781C280.531 672.886 279.395 674.309 277.933 674.984C276.278 675.748 274.578 675.318 273.791 675.11C257.125 670.603 248.789 668.35 242.553 665.429C239.962 664.213 237.327 662.983 234.209 661.381C234.209 661.381 232.316 660.403 230.393 659.358C226.155 657.052 216.46 650.981 203.921 642.382C200.574 639.862 192.445 633.583 190.856 631.982C189.394 630.507 188.265 629.187 187.479 628.216C187.998 626.407 189.602 621.678 193.306 620.588C196.223 619.736 199.015 621.5 202.778 624.028C211.3 629.743 215.561 632.597 219.77 634.347C221.344 634.999 235.107 640.714 243.607 634.814C246.74 632.634 248.336 629.469 252.612 628.98C254.475 628.765 257.845 628.957 258.58 630.796C258.988 631.819 258.439 632.983 258.023 633.665Z" fill="#FAEEE4"/>
<path d="M557.061 576.134C553.498 575.519 552.036 577.669 547.975 577.365C545.065 577.15 542.229 576.431 539.297 575.586C539.987 578.885 540.7 584.919 538.109 591.405C536.662 595.045 534.791 599.737 529.981 601.487C523.878 603.71 517.962 599.404 517.331 598.922C514.347 600.716 513.664 601.694 513.835 602.25C514.094 603.125 515.557 603.814 517.145 604.296C517.368 604.363 517.19 605.749 517.197 606.527C516.626 607.469 516.054 608.418 515.49 609.367C517.873 609.915 522.238 629.619 522.862 633.31C523.299 635.927 523.908 641.516 523.069 644.704C522.216 647.921 519.647 649.685 514.785 653.036C510.999 655.645 507.495 657.135 505.127 657.98C500.443 660.026 500.161 660.53 501.697 664.029C501.772 664.14 501.913 664.326 502.15 664.467C502.506 664.682 502.863 664.674 502.996 664.659C505.409 664.733 508.015 664.719 510.791 664.57C513.248 664.437 515.557 664.222 517.702 663.948C523.285 662.851 527.494 660.968 530.174 659.537C533.893 657.558 541.517 653.273 546.305 644.489C547.752 641.828 548.851 638.84 549.512 635.467C550.996 627.921 549.578 626.305 550.536 619.396C552.243 609.982 555.383 603.748 558.086 599.7C558.976 598.366 561.634 594.533 563.245 588.877C564.982 582.776 563.794 580.523 563.334 579.782C561.538 576.898 557.87 576.268 557.069 576.127L557.061 576.134Z" fill="#FAEEE4"/>
<path d="M500.881 661.606C513.397 661.183 525.564 656.698 535.429 649.056C539.156 646.09 542.259 641.872 542.979 637.143C543.291 634.823 542.986 632.28 543.075 629.715C543.194 624.586 544.382 619.612 545.748 614.689C547.166 609.797 549.356 605.082 552.184 600.85C554.983 596.698 557.484 592.451 559.34 587.803C560.855 584.378 561.73 580.531 557.945 578.262C556.898 577.617 555.71 577.188 554.485 576.898C561.419 577.736 562.844 582.176 560.506 588.24C558.858 593.029 556.378 597.566 553.602 601.761C548.264 610.071 545.585 619.967 544.931 629.76C544.82 632.295 545.095 634.808 544.731 637.38C544.337 640.049 543.172 642.465 541.754 644.637C538.881 648.981 534.449 651.954 530.003 654.415C521.28 659.56 510.821 662.139 500.896 661.591L500.881 661.606Z" fill="#F98748"/>
<path d="M524.443 608.863C523.856 609.271 522.208 610.294 519.87 610.324C518.274 610.346 517.034 609.894 516.381 609.59" stroke="#0B3644" stroke-width="2" stroke-miterlimit="10" stroke-linecap="round"/>
<path d="M528.474 613.457C527.694 614.028 525.512 615.466 522.401 615.503C520.278 615.533 518.638 614.895 517.769 614.48" stroke="#0B3644" stroke-width="2" stroke-miterlimit="10" stroke-linecap="round"/>
<path d="M531.428 618.551C530.53 619.062 528.013 620.352 524.435 620.389C521.985 620.411 520.1 619.848 519.098 619.47" stroke="#0B3644" stroke-width="2" stroke-miterlimit="10" stroke-linecap="round"/>
<path d="M533.588 623.273C532.631 623.829 529.943 625.223 526.113 625.26C523.5 625.29 521.481 624.667 520.404 624.267" stroke="#0B3644" stroke-width="2" stroke-miterlimit="10" stroke-linecap="round"/>
<path d="M188.696 625.328C195.318 631.043 202.244 636.388 209.526 641.206C216.816 646.01 224.358 650.472 232.093 654.527C239.836 658.56 247.757 662.303 256.034 664.979C258.112 665.609 260.184 666.254 262.299 666.751C264.408 667.263 266.545 667.67 268.691 668.004C272.982 668.708 277.317 668.982 281.682 668.893L281.726 669.857C279.522 670.035 277.309 670.079 275.097 670.02C272.878 669.953 270.673 669.746 268.476 669.464C264.096 668.864 259.753 667.893 255.537 666.543C251.313 665.209 247.215 663.563 243.184 661.792C239.153 660.005 235.189 658.093 231.306 656.017C223.542 651.866 215.992 647.359 208.702 642.422C201.427 637.463 194.538 631.947 188.154 625.913L188.696 625.32V625.328Z" fill="#F98748"/>
<path d="M250.422 636.106C249.984 635.861 248.87 635.165 248.492 633.838C248.232 632.933 248.432 632.133 248.588 631.695" stroke="#0B3644" stroke-width="2" stroke-miterlimit="10" stroke-linecap="round"/>
<path d="M247.111 639.529C246.51 639.21 244.966 638.298 244.461 636.541C244.119 635.341 244.409 634.273 244.632 633.688" stroke="#0B3644" stroke-width="2" stroke-miterlimit="10" stroke-linecap="round"/>
<path d="M243.236 642.337C242.664 641.944 241.194 640.803 240.63 638.779C240.244 637.4 240.445 636.199 240.608 635.547" stroke="#0B3644" stroke-width="2" stroke-miterlimit="10" stroke-linecap="round"/>
<path d="M239.561 644.512C238.945 644.089 237.364 642.881 236.755 640.716C236.34 639.241 236.562 637.959 236.74 637.262" stroke="#0B3644" stroke-width="2" stroke-miterlimit="10" stroke-linecap="round"/>
<path d="M428.25 650.218C428.25 650.218 423.016 624.177 413.381 576.238C408.942 573.673 404.502 571.108 400.063 568.543C399.395 571.226 398.549 575.066 397.925 579.722C395.587 597.253 398.46 610.937 400.301 619.373C404.228 637.312 411.206 651.805 417.634 662.39C421.302 660.426 424.961 658.461 428.629 656.49" fill="#013A49"/>
<path d="M630.367 321.598C637.457 300.234 646.298 277.343 657.396 253.48C662.57 242.354 667.885 231.99 667.885 231.99C669.934 228.002 671.694 224.704 672.948 222.376C672.785 222.391 672.436 222.391 672.065 222.191C671.835 222.072 671.686 221.916 671.59 221.812C669.244 226.194 666.727 230.96 664.07 236.082C664.07 236.082 660.21 243.503 656.446 250.982C651.316 261.16 639.305 286.194 624.043 320.011" fill="#095B62"/>
<path d="M660.67 296.527L661.13 299.203C656.201 302.435 651.658 305.319 647.59 307.854C647.59 307.854 641.109 311.865 636.714 313.933C636.277 314.14 634.562 314.926 632.476 316.298C632.179 316.498 631.934 316.661 631.793 316.757C630.805 314.333 631.169 311.991 632.505 311.005C632.787 310.797 633.307 310.508 634.176 310.471C633.894 310.923 633.812 311.227 633.931 311.39C634.688 312.421 643.596 307.461 660.677 296.527H660.67Z" fill="#095B62"/>
<path d="M710.11 247.274C703.236 258.29 682.005 265.695 672.547 258.838C672.948 257.771 675.123 252.344 681.166 249.602C686.622 247.126 691.596 248.49 692.836 248.86C694.187 249.809 695.419 248.927 696.755 248.734C701.187 248.104 705.441 245.74 710.11 247.267V247.274Z" fill="#095B62"/>
<path d="M708.536 244.631C700.615 238.886 690.527 239.094 680.787 245.15C676.608 247.811 674.188 250.628 672.815 252.541C670.306 256.047 670.773 257.307 671.003 257.73C671.345 258.36 672.005 258.686 672.547 258.857C677.298 253.831 681.715 251.977 684.848 251.221C688.864 250.243 691.202 250.947 696.584 250.473C702.375 249.961 707.022 248.493 710.117 247.292C710.266 247.011 710.719 246.225 708.544 244.646L708.536 244.631ZM686.503 248.197C685.598 248.567 684.833 248.775 684.195 248.842C684.841 248.782 685.598 248.575 686.503 248.197C686.964 248.004 687.639 247.515 688.396 247.092C687.647 247.507 686.971 248.004 686.503 248.197Z" fill="#359297"/>
<path d="M711.528 300.033C699.39 311.411 670.387 313.272 660.7 301.382C661.546 300.188 666 294.154 674.463 292.835C682.101 291.641 687.906 295.081 689.347 295.985C690.742 297.646 692.568 296.971 694.305 297.201C700.066 297.957 706.161 296.489 711.535 300.025L711.528 300.033Z" fill="#095B62"/>
<path d="M710.392 296.163C702.286 286.208 689.554 282.939 675.405 287.112C669.318 288.98 665.376 291.664 663.053 293.576C658.792 297.082 658.977 298.832 659.126 299.432C659.356 300.344 660.083 300.974 660.7 301.382C668.264 296.749 674.396 295.978 678.568 296.119C683.92 296.297 686.63 297.994 693.533 299.284C700.964 300.67 707.259 300.455 711.528 300.033C711.802 299.729 712.626 298.906 710.392 296.171V296.163ZM681.604 292.924C680.349 293.072 679.325 293.065 678.501 292.924C679.332 293.072 680.349 293.079 681.604 292.924Z" fill="#359297"/>
<path d="M627.962 217.683C624.785 227.127 630.754 243.31 639.439 245.556C639.877 244.8 642.037 240.863 640.708 235.941C639.513 231.501 636.277 229.225 635.445 228.677C634.22 228.343 634.146 227.179 633.604 226.297C631.815 223.369 631.139 219.692 627.955 217.676L627.962 217.683Z" fill="#095B62"/>
<path d="M627.962 217.684C628.757 220.1 630.16 223.562 632.684 227.239C635.029 230.656 636.588 231.694 637.969 234.548C639.045 236.772 640.107 240.286 639.439 245.556C639.803 245.793 640.315 246.023 640.857 245.92C641.213 245.845 642.193 245.512 643.047 242.317C643.514 240.575 643.997 237.765 643.537 233.992C642.371 225.275 637.568 219.203 630.293 217.321C628.289 216.802 628.051 217.454 627.955 217.684H627.962ZM638.682 230.441C638.8 231.086 638.838 231.731 638.949 232.094C638.838 231.724 638.8 231.086 638.682 230.441Z" fill="#359297"/>
<path d="M605.789 287.312C599.835 299.507 605.039 322.405 616.374 326.964C617.094 326.015 620.702 321.086 619.782 314.214C618.95 308.009 614.979 304.37 613.962 303.48C612.366 302.813 612.47 301.234 611.898 299.944C609.998 295.674 609.738 290.596 605.796 287.312H605.789Z" fill="#095B62"/>
<path d="M605.789 287.311C606.442 290.714 607.719 295.636 610.48 301.047C613.041 306.073 614.964 307.748 616.33 311.848C617.391 315.043 618.2 319.972 616.382 326.97C616.835 327.348 617.488 327.756 618.238 327.711C618.735 327.682 620.116 327.393 621.831 323.227C622.766 320.958 623.917 317.252 623.961 312.078C623.931 300.106 618.512 291.062 609.018 287.244C606.405 286.192 605.967 287.037 605.796 287.318L605.789 287.311ZM618.007 306.421C618.052 307.318 617.993 308.186 618.082 308.705C617.993 308.186 618.059 307.318 618.007 306.421Z" fill="#359297"/>
<path d="M621.214 310.324C642.386 333.667 640.597 369.724 617.221 390.865C593.844 412.007 557.737 410.22 536.565 386.877" fill="#FFAC84"/>
<path d="M536.565 386.877C557.596 410.065 594 411.859 617.221 390.865C640.441 369.865 642.238 333.504 621.214 310.324" stroke="#FE6949" stroke-width="5" stroke-linecap="round" stroke-linejoin="round"/>
<path d="M541.368 384.094C560.394 405.072 593.339 406.703 614.348 387.697C635.356 368.697 636.989 335.799 617.955 314.82" stroke="#FECCB9" stroke-width="3" stroke-miterlimit="10" stroke-linecap="round"/>
<path d="M571.27 355.601C575.694 360.226 582.969 360.078 586.926 355.808C590.452 352.005 590.622 345.712 586.985 341.383" fill="#FECCB9"/>
<path d="M596.658 347.326L622.053 347.007C623.427 346.993 624.34 345.592 623.813 344.331L616.508 326.852C615.981 325.592 614.34 325.258 613.368 326.222L595.277 344.02C594.037 345.243 594.913 347.348 596.658 347.326Z" fill="#FECCB9"/>
<path d="M594.549 359.033L611.712 375.956C612.796 377.024 614.622 376.653 615.201 375.245L622.157 358.351C622.736 356.942 621.704 355.393 620.175 355.393L596.056 355.363C594.141 355.363 593.184 357.684 594.549 359.025V359.033Z" fill="#FECCB9"/>
<path d="M583.206 366.868L583.31 390.656C583.31 392.213 584.906 393.258 586.339 392.665L603.094 385.682C604.534 385.081 604.898 383.221 603.799 382.124L586.94 365.311C585.56 363.932 583.199 364.918 583.206 366.868Z" fill="#FECCB9"/>
<path d="M571.411 364.156L552.139 380.568C550.974 381.561 551.174 383.407 552.518 384.134L568.657 392.822C570 393.548 571.656 392.696 571.849 391.176L574.981 366.076C575.226 364.112 572.925 362.866 571.411 364.156Z" fill="#FECCB9"/>
<path d="M670.922 256.129C670.862 256.299 670.706 256.788 670.884 257.374C671.018 257.819 671.271 258.1 671.404 258.226C665.005 261.273 657.381 265.98 650.359 273.349C648.822 274.965 647.434 276.573 646.172 278.167C647.241 275.335 648.317 272.504 649.386 269.672L670.914 256.121L670.922 256.129Z" fill="#095B62"/>
<path d="M629.692 277.477C629.618 277.64 629.395 278.107 628.861 278.411C628.46 278.64 628.081 278.677 627.896 278.677C630.471 285.275 632.795 293.918 632.862 304.089C632.877 306.313 632.78 308.44 632.602 310.464C633.76 307.669 634.925 304.875 636.084 302.073C633.953 293.874 631.822 285.675 629.692 277.477Z" fill="#095B62"/>
<path d="M642.096 244.762C642.022 244.925 641.8 245.392 641.265 245.696C640.864 245.926 640.486 245.963 640.3 245.963C642.876 252.56 645.199 261.204 645.266 271.374C645.281 273.598 645.185 275.725 645.006 277.749C646.165 274.954 647.33 272.16 648.488 269.358C646.358 261.159 644.227 252.96 642.096 244.762Z" fill="#095B62"/>
<path d="M615.699 251.25C612.254 261.502 618.728 279.063 628.155 281.502C628.63 280.679 630.969 276.409 629.536 271.072C628.237 266.253 624.726 263.785 623.827 263.184C622.499 262.821 622.417 261.561 621.83 260.597C619.886 257.417 619.158 253.429 615.699 251.242V251.25Z" fill="#095B62"/>
<path d="M615.699 251.249C616.567 253.873 618.082 257.631 620.821 261.619C623.367 265.326 625.06 266.453 626.559 269.551C627.732 271.968 628.875 275.778 628.155 281.493C628.549 281.745 629.105 282.005 629.699 281.886C630.085 281.812 631.154 281.442 632.075 277.972C632.58 276.082 633.107 273.035 632.609 268.943C631.347 259.485 626.129 252.894 618.238 250.849C616.063 250.285 615.803 250.997 615.699 251.241V251.249ZM627.331 265.096C627.457 265.8 627.502 266.497 627.621 266.89C627.858 267.668 628.133 268.269 628.43 268.714C628.126 268.269 627.858 267.668 627.621 266.89C627.495 266.49 627.457 265.793 627.331 265.096Z" fill="#359297"/>
<path d="M131.898 66.9545C135.811 68.1096 139.531 46.9322 155.824 41.9267C164.933 39.1244 170.428 43.7022 176.394 39.1458C182.873 34.183 185.161 22.0542 180.649 17.1556C173.871 9.79695 148.725 15.5726 136.858 31.723C126.317 46.0766 128.263 65.8849 131.898 66.9545Z" fill="#FF8C81"/>
<path d="M202.5 16C207.194 16 211 12.4183 211 8C211 3.58172 207.194 0 202.5 0C197.806 0 194 3.58172 194 8C194 12.4183 197.806 16 202.5 16Z" fill="#FE6949"/>
<path d="M104 68C107.314 68 110 65.3137 110 62C110 58.6863 107.314 56 104 56C100.686 56 98 58.6863 98 62C98 65.3137 100.686 68 104 68Z" fill="#FF8C81"/>
<defs>
<linearGradient id="paint0_linear_590_2163" x1="331.545" y1="159.436" x2="315.268" y2="142.059" gradientUnits="userSpaceOnUse">
<stop offset="0.5" stop-color="#ED725E"/>
<stop offset="0.62" stop-color="#BF4F42"/>
</linearGradient>
<linearGradient id="paint1_linear_590_2163" x1="348.842" y1="154.266" x2="348.842" y2="148.839" gradientUnits="userSpaceOnUse">
<stop offset="0.87" stop-color="#ED725E"/>
<stop offset="0.94" stop-color="#EB705C"/>
<stop offset="0.96" stop-color="#E46B58"/>
<stop offset="0.98" stop-color="#D86251"/>
<stop offset="0.99" stop-color="#C75547"/>
<stop offset="1" stop-color="#BF4F42"/>
</linearGradient>
</defs>
</svg>
