<svg width="35" height="35" viewBox="0 0 35 35" fill="none" xmlns="http://www.w3.org/2000/svg">
<path d="M17.025 22.1516C19.5932 22.1516 21.675 20.0698 21.675 17.5016C21.675 14.9334 19.5932 12.8516 17.025 12.8516C14.4568 12.8516 12.375 14.9334 12.375 17.5016C12.375 20.0698 14.4568 22.1516 17.025 22.1516Z" stroke="#C1C1C1" stroke-width="3" stroke-linecap="round" stroke-linejoin="round"/>
<path d="M28.8382 15.0129L27.1367 10.9044L29.4234 8.2L26.3234 5.1L23.6337 7.39857L19.438 5.6731L18.4732 2H15.444L14.4645 5.72175L10.3653 7.44974L7.72344 5.1L4.62344 8.2L6.87616 10.9727L5.20081 15.0918L1.52344 15.95V19.05L5.24516 20.066L6.97285 24.1645L4.62344 26.8L7.72344 29.9L10.4997 27.6375L14.5388 29.2991L15.4734 33H18.5734L19.5104 29.3005L23.6188 27.599C24.3036 28.0885 26.3234 29.9 26.3234 29.9L29.4234 26.8L27.1231 24.0866L28.825 19.9769L32.5233 19.0147L32.5234 15.95L28.8382 15.0129Z" stroke="#C1C1C1" stroke-width="3" stroke-linecap="round" stroke-linejoin="round"/>
</svg>
