<svg width="307" height="76" xmlns="http://www.w3.org/2000/svg" xmlns:xlink="http://www.w3.org/1999/xlink" xml:space="preserve" overflow="hidden"><defs><clipPath id="clip0"><rect x="0" y="0" width="307" height="76"/></clipPath></defs><g clip-path="url(#clip0)"><path d="M18.9752 30.2261 12.8899 24.8703C12.3703 24.4106 12.3304 23.6112 12.8 23.1116L34.0434 0.399395C34.503-0.0902226 35.2724-0.120199 35.772 0.329449L50.0109 13.2394C50.5005 13.689 51.2599 13.659 51.7196 13.1894L62.1914 2.44779C64.3697 0.209543 67.9369 0.109621 70.2451 2.21797L70.2451 2.21797C72.6332 4.40626 72.7631 8.14334 70.5149 10.4815L52.2392 29.5866C51.7795 30.0762 51.0101 30.0962 50.5105 29.6365L36.1218 16.307C35.6321 15.8573 34.8827 15.8673 34.4131 16.3469L20.6738 30.1761C20.2142 30.6358 19.4748 30.6657 18.9852 30.2361Z" fill="#FFFFFF"/><path d="M29.1272 39.6087 42.9764 52.7285C43.466 53.1981 43.486 53.9675 43.0264 54.4671L32.5845 65.5685C30.4562 67.8267 30.5861 71.3839 32.8543 73.4923L32.8543 73.4923C35.0926 75.5706 38.5798 75.4607 40.6882 73.2524L58.6242 54.4771C59.0938 53.9875 59.0738 53.1981 58.5842 52.7385L36.2617 31.635C35.752 31.1554 34.9527 31.1953 34.493 31.7149L29.0373 37.9001C28.5976 38.3997 28.6376 39.1491 29.1172 39.6087Z" fill="#FFFFFF"/><path d="M21.2234 47.7923 27.4685 53.5678C27.9681 54.0375 27.9981 54.8169 27.5285 55.3165L9.51256 74.2716C7.44418 76.4499 4.01686 76.5698 1.79859 74.5514L1.79859 74.5514C-0.489617 72.4631-0.609524 68.9058 1.5288 66.6676L19.5048 47.8523C19.9644 47.3627 20.7338 47.3427 21.2334 47.8023Z" fill="#FFFFFF"/><text fill="#FFFFFF" font-family="Inter,Inter_MSFontService,sans-serif" font-weight="700" font-size="54" transform="matrix(0.999219 0 0 0.999219 108.245 57)">Rise Up</text></g></svg>