<svg width="64" height="66" viewBox="0 0 64 66" fill="none" xmlns="http://www.w3.org/2000/svg">
<g clip-path="url(#clip0_369_3142)">
<path d="M18.0531 26.452L12.9045 21.9377C12.463 21.5503 12.4299 20.8799 12.8327 20.4512L30.8005 1.32788C31.1896 0.91574 31.838 0.888264 32.2601 1.26743L44.304 12.1452C44.7179 12.5189 45.358 12.4996 45.747 12.1012L54.6012 3.05613C56.4471 1.17127 59.4629 1.08609 61.4109 2.86379C63.4334 4.71018 63.5382 7.8507 61.6427 9.82623L46.183 25.9162C45.7912 26.3256 45.14 26.3448 44.7234 25.9602L32.5499 14.728C32.1387 14.3488 31.4986 14.3625 31.1041 14.7582L19.4796 26.4053C19.0906 26.7927 18.467 26.8147 18.0531 26.452Z" fill="white"/>
<path d="M26.6397 34.3537L38.3524 45.4101C38.7691 45.803 38.7884 46.4569 38.3938 46.8718L29.5645 56.2219C27.7655 58.126 27.8703 61.1237 29.7962 62.9014C31.6918 64.6489 34.6413 64.5582 36.4265 62.6981L51.602 46.8801C51.9994 46.4652 51.9828 45.8058 51.5634 45.4101L32.6823 27.6386C32.2547 27.2347 31.5759 27.2677 31.1868 27.7073L26.5735 32.9195C26.2038 33.3371 26.2314 33.9718 26.637 34.3565L26.6397 34.3537Z" fill="white"/>
<path d="M19.9569 41.2489L25.2352 46.1149C25.6601 46.5078 25.6822 47.17 25.2821 47.5876L10.0459 63.554C8.29656 65.3866 5.39666 65.4911 3.52042 63.7875C1.58347 62.0318 1.47862 59.0314 3.28864 57.1438L18.4945 41.2929C18.8863 40.8835 19.5375 40.8643 19.9541 41.2489H19.9569Z" fill="white"/>
</g>
<defs>
<clipPath id="clip0_369_3142">
<rect width="61" height="64" fill="white" transform="translate(2 1)"/>
</clipPath>
</defs>
</svg>
