<svg width="119" height="125" xmlns="http://www.w3.org/2000/svg" xmlns:xlink="http://www.w3.org/1999/xlink" xml:space="preserve" overflow="hidden"><defs><clipPath id="clip0"><rect x="0" y="0" width="119" height="125"/></clipPath></defs><g clip-path="url(#clip0)"><path d="M31.4034 49.7166 21.3943 40.9049C20.536 40.1465 20.4762 38.8392 21.2546 38.001L56.1919 0.638672C56.9503-0.169647 58.2077-0.219543 59.026 0.518921L82.4473 21.7647C83.2556 22.4932 84.493 22.4633 85.2514 21.6749L102.476 4.00168C106.068 0.319336 111.926 0.149689 115.718 3.62247L115.718 3.62247C119.65 7.22497 119.859 13.3622 116.167 17.2242L86.0997 48.6488C85.3313 49.4472 84.0739 49.4871 83.2656 48.7386L59.5848 26.8042C58.7865 26.0658 57.5391 26.0857 56.7707 26.8641L34.1577 49.6168C33.3993 50.3752 32.1918 50.4151 31.3835 49.7066Z" fill="#231F20"/><path d="M48.0987 65.1445 70.8813 86.7396C71.6897 87.508 71.7296 88.7853 70.9612 89.5936L53.7869 107.856C50.2942 111.578 50.4937 117.436 54.236 120.899L54.236 120.899C57.9183 124.311 63.6564 124.132 67.1291 120.499L96.6477 89.6036C97.4261 88.7953 97.3862 87.508 96.5779 86.7396L59.8543 52.0318C59.026 51.2434 57.6987 51.3033 56.9503 52.1615L47.979 62.3403C47.2605 63.1586 47.3104 64.3961 48.1087 65.1445Z" fill="#231F20"/><path d="M35.1057 78.6165 45.3744 88.1167C46.2027 88.8851 46.2426 90.1824 45.4642 91.0007L15.8358 122.186C12.4329 125.768 6.79463 125.968 3.14222 122.645L3.14222 122.645C-0.619951 119.212-0.829515 113.354 2.69316 109.672L32.2716 78.7163C33.0301 77.9179 34.2974 77.878 35.1057 78.6265Z" fill="#231F20"/></g></svg>