<svg width="29" height="29" viewBox="0 0 29 29" fill="none" xmlns="http://www.w3.org/2000/svg">
<path d="M23.875 27C24.9105 27 25.75 26.1605 25.75 25.125C25.75 24.0895 24.9105 23.25 23.875 23.25C22.8395 23.25 22 24.0895 22 25.125C22 26.1605 22.8395 27 23.875 27Z" fill="white" stroke="white" stroke-width="3" stroke-linecap="round" stroke-linejoin="round"/>
<path d="M11.375 27C12.4105 27 13.25 26.1605 13.25 25.125C13.25 24.0895 12.4105 23.25 11.375 23.25C10.3395 23.25 9.5 24.0895 9.5 25.125C9.5 26.1605 10.3395 27 11.375 27Z" fill="white" stroke="white" stroke-width="3" stroke-linecap="round" stroke-linejoin="round"/>
<path d="M5.75 4.5H27L24.5 18.25H8.25L5.75 4.5ZM5.75 4.5C5.54166 3.66666 4.5 2 2 2" stroke="white" stroke-width="3" stroke-linecap="round" stroke-linejoin="round"/>
<path d="M24.5 18.25H8.25H6.03846C3.80808 18.25 2.625 19.2265 2.625 20.75C2.625 22.2735 3.80808 23.25 6.03846 23.25H23.875" stroke="white" stroke-width="3" stroke-linecap="round" stroke-linejoin="round"/>
</svg>
